STARTFONT 2.3
FONT -FontForge-Shadows Into Light-Book-R-Normal--20-200-72-72-P-83-ISO10646-1
SIZE 20 72 72  4
FONTBOUNDINGBOX 29 33 -4 -9
COMMENT "Generated by fontforge, http://fontforge.sourceforge.net"
COMMENT "Copyright (c) 2010, Kimberly Geswein (kimberlygeswein.com)"
STARTPROPERTIES 40
FOUNDRY "FontForge"
FAMILY_NAME "Shadows Into Light"
WEIGHT_NAME "Book"
SLANT "R"
SETWIDTH_NAME "Normal"
ADD_STYLE_NAME ""
PIXEL_SIZE 20
POINT_SIZE 200
RESOLUTION_X 72
RESOLUTION_Y 72
SPACING "P"
AVERAGE_WIDTH 83
CHARSET_REGISTRY "ISO10646"
CHARSET_ENCODING "1"
FONTNAME_REGISTRY ""
CHARSET_COLLECTIONS "ISO8859-2 ISO8859-9 ISO8859-4 ISO10646-1"
BITS_PER_PIXEL 4
FONT_NAME "ShadowsIntoLight"
FACE_NAME "Shadows Into Light"
COPYRIGHT "Copyright (c) 2010, Kimberly Geswein (kimberlygeswein.com)"
FONT_VERSION "001.000"
FONT_ASCENT 16
FONT_DESCENT 4
UNDERLINE_POSITION 0
UNDERLINE_THICKNESS 0
X_HEIGHT 11
CAP_HEIGHT 13
RAW_ASCENT 799
RAW_DESCENT 200
NORM_SPACE 9
RELATIVE_WEIGHT 40
RELATIVE_SETWIDTH 50
SUPERSCRIPT_X 0
SUPERSCRIPT_Y 9
SUPERSCRIPT_SIZE 13
SUBSCRIPT_X 0
SUBSCRIPT_Y 2
SUBSCRIPT_SIZE 13
AVG_LOWERCASE_WIDTH 75
AVG_UPPERCASE_WIDTH 98
ENDPROPERTIES
CHARS 352
STARTCHAR space
ENCODING 32
SWIDTH 450 0
DWIDTH 9 0
BBX 1 1 0 0
BITMAP
00
ENDCHAR
STARTCHAR exclam
ENCODING 33
SWIDTH 137 0
DWIDTH 3 0
BBX 3 17 0 0
BITMAP
6500
7500
8500
9500
9500
9500
A500
A600
B800
9900
1100
0000
0000
0000
0000
0110
0650
ENDCHAR
STARTCHAR quotedbl
ENCODING 34
SWIDTH 212 0
DWIDTH 4 0
BBX 4 6 0 10
BITMAP
5523
5848
4A48
3B48
1B48
0902
ENDCHAR
STARTCHAR numbersign
ENCODING 35
SWIDTH 450 0
DWIDTH 9 0
BBX 8 11 1 2
BITMAP
00009000
0610D000
0A60E200
0781FD50
6BEAD500
4C90B417
0780BCA3
07A5EB00
19F77800
CCB02A00
00900600
ENDCHAR
STARTCHAR dollar
ENCODING 36
SWIDTH 445 0
DWIDTH 9 0
BBX 9 19 0 -3
BITMAP
0000500000
0002C00000
0004C00000
0004EA5000
003ED40000
06C7C00000
4E13C00000
C703C00000
CA46F62000
1688F57920
0000D10840
0000B34A00
0000BDA100
0019FA0000
0015980000
00005A0000
00001D0000
00000C0000
0000010000
ENDCHAR
STARTCHAR percent
ENCODING 37
SWIDTH 450 0
DWIDTH 9 0
BBX 9 16 0 0
BITMAP
0000028000
0000079000
19A10C4000
89282E0000
A5266A0000
97B1A60000
3B40D20000
0002D00000
0005904A10
0008509C70
000A20A580
000C00BC40
000A007800
0037000000
0054000000
0061000000
ENDCHAR
STARTCHAR ampersand
ENCODING 38
SWIDTH 356 0
DWIDTH 7 0
BBX 7 9 0 2
BITMAP
00075000
00085000
00085020
05788D50
678EE500
A02E9000
94C99000
4A279000
00055000
ENDCHAR
STARTCHAR quotesingle
ENCODING 39
SWIDTH 155 0
DWIDTH 3 0
BBX 2 7 0 6
BITMAP
25
5D
3F
1F
0E
0B
01
ENDCHAR
STARTCHAR parenleft
ENCODING 40
SWIDTH 291 0
DWIDTH 6 0
BBX 6 17 0 0
BITMAP
000032
0001D3
000B60
005B00
00D300
069000
0B3000
2D0000
690000
960000
A50000
A50000
770000
3C0000
0C3000
04C100
005C60
ENDCHAR
STARTCHAR parenright
ENCODING 41
SWIDTH 241 0
DWIDTH 5 0
BBX 5 15 0 0
BITMAP
680000
0A7000
01D200
006900
000D00
000B20
000930
000840
000740
000A30
000D10
004C00
00A600
01D100
034000
ENDCHAR
STARTCHAR asterisk
ENCODING 42
SWIDTH 481 0
DWIDTH 10 0
BBX 10 10 0 1
BITMAP
0007501000
000851D200
22086B7000
3CCBE969B1
007FFD8510
7DDFED7000
116DC19C20
04F4C00310
0B60A20000
0000620000
ENDCHAR
STARTCHAR plus
ENCODING 43
SWIDTH 466 0
DWIDTH 9 0
BBX 10 9 0 2
BITMAP
0007500000
0008500000
0008500000
00085169B1
000AEC8510
7DCE900000
1108900000
0005900000
0002600000
ENDCHAR
STARTCHAR comma
ENCODING 44
SWIDTH 112 0
DWIDTH 2 0
BBX 2 6 0 -3
BITMAP
03
6F
4F
4C
49
10
ENDCHAR
STARTCHAR hyphen
ENCODING 45
SWIDTH 399 0
DWIDTH 8 0
BBX 8 4 0 3
BITMAP
00000263
0005BFC5
5AEB6200
34100000
ENDCHAR
STARTCHAR period
ENCODING 46
SWIDTH 128 0
DWIDTH 3 0
BBX 2 2 0 0
BITMAP
03
6D
ENDCHAR
STARTCHAR slash
ENCODING 47
SWIDTH 306 0
DWIDTH 6 0
BBX 6 16 0 -2
BITMAP
000077
0000C2
0002D0
000680
000B30
001D00
005900
009400
00D000
03A000
086000
0C1000
2B0000
770000
B20000
600000
ENDCHAR
STARTCHAR zero
ENCODING 48
SWIDTH 308 0
DWIDTH 6 0
BBX 6 11 0 0
BITMAP
006A30
0682C0
0B0093
280056
480047
480038
490047
1B0065
0B00B2
0744C0
01DD30
ENDCHAR
STARTCHAR one
ENCODING 49
SWIDTH 112 0
DWIDTH 2 0
BBX 2 13 0 0
BITMAP
22
57
57
57
57
68
68
68
59
59
4A
3A
19
ENDCHAR
STARTCHAR two
ENCODING 50
SWIDTH 512 0
DWIDTH 10 0
BBX 10 12 0 0
BITMAP
0003710000
008ECB0000
0AB11E1000
6A000D1000
10000E0000
00003B0000
0000870000
0000D20000
0005B00000
000D4049D7
006EAD9510
0098300000
ENDCHAR
STARTCHAR three
ENCODING 51
SWIDTH 461 0
DWIDTH 9 0
BBX 9 14 0 0
BITMAP
00059A1000
07DA7D4000
8B200B1000
1100690000
0004D10000
003E986200
02DF845C50
05920003C0
00000003B0
0000000B60
0000009A00
00001BC100
0003DA1000
0008700000
ENDCHAR
STARTCHAR four
ENCODING 52
SWIDTH 503 0
DWIDTH 10 0
BBX 10 16 0 0
BITMAP
0000007000
000005F100
00000DF100
00006EF100
0001E6E100
0008B0E100
002D10E100
00B600E100
07C015ECE9
5FBBB8E300
873000E100
000000E100
000000E100
000000E100
000000E100
000000C100
ENDCHAR
STARTCHAR five
ENCODING 53
SWIDTH 478 0
DWIDTH 10 0
BBX 10 14 0 0
BITMAP
03000148B1
6F88BA6430
8FD4000000
2F20000000
2E00000000
3E017B6000
3D1C85E100
3EB300C200
1E2000E100
010005B000
00001E3000
0000B90000
0007C10000
0009100000
ENDCHAR
STARTCHAR six
ENCODING 54
SWIDTH 375 0
DWIDTH 8 0
BBX 7 17 0 0
BITMAP
00200000
00D30000
00F10000
03C00000
06900000
08600000
0B200000
0D000000
1C000000
49004BB0
7804E5C0
870D40A0
77680470
68B10B10
3DA06900
0DB5D100
03ED3000
ENDCHAR
STARTCHAR seven
ENCODING 55
SWIDTH 458 0
DWIDTH 9 0
BBX 9 15 0 0
BITMAP
0001479B50
4ADFDBAF40
2420006D00
000000B700
000000E200
000003C000
0000068000
0000085000
00000B2000
00000D1000
00000E0000
00001F0000
00001F1000
00000F4000
00000A6000
ENDCHAR
STARTCHAR eight
ENCODING 56
SWIDTH 333 0
DWIDTH 7 0
BBX 6 14 0 0
BITMAP
003BD4
04B8FC
1D157B
79000A
960039
780094
1D22C0
03DD60
004F40
0078A0
00A046
03800B
05803B
02DEB2
ENDCHAR
STARTCHAR nine
ENCODING 57
SWIDTH 475 0
DWIDTH 10 0
BBX 9 14 0 0
BITMAP
0000376100
0009D8BB00
00A901DF20
07B009DB30
1E106E2A40
7805F50940
A47F600850
9FD4000760
0200000670
0000000690
00000005A0
00000004B0
00000004B0
00000003A0
ENDCHAR
STARTCHAR colon
ENCODING 58
SWIDTH 120 0
DWIDTH 2 0
BBX 2 7 0 2
BITMAP
33
45
00
00
00
15
27
ENDCHAR
STARTCHAR semicolon
ENCODING 59
SWIDTH 121 0
DWIDTH 2 0
BBX 2 9 0 -3
BITMAP
4A
01
00
03
6F
4F
4C
49
10
ENDCHAR
STARTCHAR less
ENCODING 60
SWIDTH 409 0
DWIDTH 8 0
BBX 7 11 1 2
BITMAP
00000080
00001BA0
0002DB10
004E9000
07E50000
9C200000
DA100000
1BD50000
006EB300
00019F70
00000310
ENDCHAR
STARTCHAR equal
ENCODING 61
SWIDTH 433 0
DWIDTH 9 0
BBX 9 6 0 1
BITMAP
0468ACC400
1CB9630000
0000004620
0016BDC700
5DC7200000
0200000000
ENDCHAR
STARTCHAR greater
ENCODING 62
SWIDTH 450 0
DWIDTH 9 0
BBX 7 12 1 2
BITMAP
10000000
E9100000
3BE70000
005CD400
00006D90
000005B0
00002D30
0004E500
007F5000
0AE40000
BC200000
70000000
ENDCHAR
STARTCHAR question
ENCODING 63
SWIDTH 445 0
DWIDTH 9 0
BBX 9 19 0 0
BITMAP
0000133000
039DDBCD20
8FB3000970
2200000950
0000002D10
000001C500
00001C9000
0002DA0000
000CB00000
005C000000
007D111000
001BFD4000
0000000000
0000000000
0000000000
0000000000
0000000000
0001100000
0005A00000
ENDCHAR
STARTCHAR at
ENCODING 64
SWIDTH 945 0
DWIDTH 19 0
BBX 19 18 0 0
BITMAP
000000004AEFD7000000
0000002CC62018C10000
000005D50000006A0000
00006C200000000C3000
0004C1003AA100078000
001D3007C5A40005B000
00A6007A08C10004B000
03C005B03FB000049000
0A601D20C5C000086000
1E10880880B2001C1000
4D00D37B005D88C40000
6B00ECA0000144100000
7C003200000000000000
5E000000000000002E60
1F40000000000005D700
09D10000000005CB2000
00AE73101259DA300000
00049DEFEC9510000000
ENDCHAR
STARTCHAR A
ENCODING 65
SWIDTH 390 0
DWIDTH 8 0
BBX 10 16 0 -1
BITMAP
00E2000000
02F9000000
04FE100000
06B8500000
0793A00000
0980D10000
0A60960000
0C505C0362
0E401FDB85
0F33BF5000
1FEA5A8000
3E2003C000
4B0000E100
6900009500
3400004700
0000000100
ENDCHAR
STARTCHAR B
ENCODING 66
SWIDTH 537 0
DWIDTH 11 0
BBX 11 15 0 0
BITMAP
000026720000
422AD9AB0000
6DD600790000
2F4002D20000
0F101C400000
0D10A87AB910
0B5AFB412D30
09EF60001C00
06F500009400
04C000089000
02C0008C0000
00E008D10000
00D26E200000
00A392000000
006200000000
ENDCHAR
STARTCHAR C
ENCODING 67
SWIDTH 487 0
DWIDTH 10 0
BBX 10 16 0 -1
BITMAP
0000582000
0008C8D000
004C104100
00B4000000
02D0000000
0780000000
0B40000000
0E00000000
3C00000000
59000000A2
78000005E0
7800001E40
6A0001C700
1E304D6000
05EFB30000
0001000000
ENDCHAR
STARTCHAR D
ENCODING 68
SWIDTH 554 0
DWIDTH 11 0
BBX 11 15 0 0
BITMAP
008000000000
02FBBA851000
3EF63459D800
44F200001C50
00F200000590
00D200000670
00C300000B20
00B300005B00
00A40001D300
0094000B8000
0085009C0000
007608D10000
00666E300000
0027E3000000
000B30000000
ENDCHAR
STARTCHAR E
ENCODING 69
SWIDTH 474 0
DWIDTH 10 0
BBX 10 15 0 0
BITMAP
0200015600
4E039E9200
1FBE920000
0E92000000
0D20000000
0B30002200
0A4017C100
0A56D70000
09E9100000
09B0000000
09A00007D1
09A002BA10
09A06D5000
09ED910000
06A3000000
ENDCHAR
STARTCHAR F
ENCODING 70
SWIDTH 428 0
DWIDTH 9 0
BBX 9 14 0 0
BITMAP
1400018C30
6B029D8100
6DBE710000
6E60000000
6D00000000
6D00000000
5E00004B00
5F002AA200
4F18D40000
3FE7000000
2F30000000
0F10000000
0E10000000
0A10000000
ENDCHAR
STARTCHAR G
ENCODING 71
SWIDTH 591 0
DWIDTH 12 0
BBX 12 16 0 -3
BITMAP
000005CE3000
00007C610000
0005C0000000
001D20000000
009700000000
02D00016ADE4
096000688F70
0D1000006F20
4B000002EF00
7800001CDE00
880002CB3D00
4FA8AE803E00
049B93003E00
000000003F10
000000000E20
000000000100
ENDCHAR
STARTCHAR H
ENCODING 72
SWIDTH 424 0
DWIDTH 9 0
BBX 8 14 0 0
BITMAP
11000120
690005B0
5A0002D0
5A0000E0
4B0000E1
4B0001F2
3C0008F4
3D02ABB5
2FBD5086
2F910068
1E000059
1D00004B
0E00003C
0D00001A
ENDCHAR
STARTCHAR I
ENCODING 73
SWIDTH 153 0
DWIDTH 3 0
BBX 2 15 1 0
BITMAP
C1
C3
B4
A5
A5
96
96
97
97
87
87
87
87
77
56
ENDCHAR
STARTCHAR J
ENCODING 74
SWIDTH 371 0
DWIDTH 7 0
BBX 7 17 0 -2
BITMAP
00001200
00004900
00003B00
00002D00
00001F10
00000E30
00000C50
00000A70
00000880
000007A0
000005B0
000004B0
700004C0
840004B0
1C200680
02B88C10
00033000
ENDCHAR
STARTCHAR K
ENCODING 75
SWIDTH 524 0
DWIDTH 10 0
BBX 11 14 0 0
BITMAP
240000000000
5B0000170000
1D0001D40000
0E0009A00000
0D105D100000
0C31D4000000
0A5880000000
099D10000000
08F600000000
06F100000000
05FDBAA99930
03D444444400
01E000000000
00A000000000
ENDCHAR
STARTCHAR L
ENCODING 76
SWIDTH 537 0
DWIDTH 11 0
BBX 11 13 0 0
BITMAP
260000000000
6E0000000000
5F0000000000
4F0000000000
4F1000000000
3F2000000000
3F2000000000
2F3000000000
2F3000000540
1F400016DB40
1F4017E92000
1F89EA200000
0ED920000000
ENDCHAR
STARTCHAR M
ENCODING 77
SWIDTH 682 0
DWIDTH 14 0
BBX 13 16 0 0
BITMAP
12000000002100
5F80000000D500
3FE4000002F600
0D5D000007B800
0C0C60000C5900
0C04D0002B3A00
0C10C500772B00
0B204D00C20C00
0B400C52C00D00
0B5004D7700D00
0B7000CF100B20
0A900046000A40
0AA00000000960
09B000000008A0
09C000000006D0
07C000000005B0
ENDCHAR
STARTCHAR N
ENCODING 78
SWIDTH 541 0
DWIDTH 11 0
BBX 11 16 0 0
BITMAP
000000003000
00000002E100
00000000E400
58000000C500
5F800000B600
3FF50000A600
2F7E20009600
0F28C0008700
0D20B8008700
0B401D408800
0A6003D28800
0880006C9800
06A00009F900
05B00000CD00
03C000006E10
02B000000000
ENDCHAR
STARTCHAR O
ENCODING 79
SWIDTH 382 0
DWIDTH 8 0
BBX 8 14 0 0
BITMAP
00026300
004EEF50
01D605E0
06A000E2
0C6000C5
1F1000B5
4C0000C5
790000E3
970001F1
A50006C0
A6000B80
79004E10
2E76E500
06EC4000
ENDCHAR
STARTCHAR P
ENCODING 80
SWIDTH 508 0
DWIDTH 10 0
BBX 10 16 0 0
BITMAP
0283ADFD70
0BFB5116E7
5FB000004B
1990000097
08800007D1
0870019D20
08805DA100
08DDC40000
08E5000000
07B0000000
07B0000000
06B0000000
05B0000000
03B0000000
02B0000000
00A0000000
ENDCHAR
STARTCHAR Q
ENCODING 81
SWIDTH 512 0
DWIDTH 10 0
BBX 10 15 0 0
BITMAP
005EBEE800
01ED401B40
06E10002A0
0A700000B0
0E200000B1
2E000000A2
4A000000A3
68000450A2
680005D0B1
690000D4B0
4B00006DB0
1E00000E60
0B50002FB0
03D404C4E5
003CFC3056
ENDCHAR
STARTCHAR R
ENCODING 82
SWIDTH 503 0
DWIDTH 10 0
BBX 10 16 0 0
BITMAP
3C10045200
3F28EDBEC2
3FE71000D8
3F300004D1
3F00007B20
3D003B7000
3C2AB20000
3FE6000000
3F70000000
3EFC400000
3B28EB4000
3B0018EB40
3B000017EB
3B00000013
3B00000000
2800000000
ENDCHAR
STARTCHAR S
ENCODING 83
SWIDTH 541 0
DWIDTH 11 0
BBX 11 15 0 0
BITMAP
000002681000
0002AABE2000
004C30000000
04D200000000
1D3000000000
890000000000
B50000000000
970000000000
1C9410000000
0048BCCB9400
000000025E30
000000006E20
0000027DA200
0028CE820000
005730000000
ENDCHAR
STARTCHAR T
ENCODING 84
SWIDTH 595 0
DWIDTH 12 0
BBX 14 15 0 0
BITMAP
00000020000001
000013EA9ACDD7
49BEECEB653100
575200A8000000
00000088000000
00000069000000
0000005A000000
0000003C000000
0000002E000000
0000001F100000
0000000E300000
0000000D500000
0000000B600000
00000008800000
00000005900000
ENDCHAR
STARTCHAR U
ENCODING 85
SWIDTH 450 0
DWIDTH 9 0
BBX 9 16 0 -3
BITMAP
0000000400
4A00000D50
6D00001F50
5D00003F50
5D00005F40
4D00008F30
4D0000BF20
3D0000EF20
3D0003DC20
2D00088B30
0E001D1950
0BA4B50860
02AB500680
0000000590
0000000390
0000000110
ENDCHAR
STARTCHAR V
ENCODING 86
SWIDTH 524 0
DWIDTH 10 0
BBX 10 15 0 0
BITMAP
0000000006
000000003D
000000006A
74000000A7
6C000000E4
0E500002F1
07C00006C0
01E4000990
008B000D50
002F301F20
0009A05E00
0002F29B00
0000AAC700
00003FF400
000006E100
ENDCHAR
STARTCHAR W
ENCODING 87
SWIDTH 878 0
DWIDTH 18 0
BBX 17 16 0 -1
BITMAP
000000000000000280
0000000000000006A0
030000002500000A60
8D0000009F10000D20
3F300000CE60002E00
0B700002C9A0006A00
06C0000773E0009600
01F2000B30D400D200
00C6001D008A02E000
008B0068002E15A000
005F10B40009796000
001F61E00002ED3000
000CA6A00000AF0000
0006FC600000290000
0001DE100000000000
000021000000000000
ENDCHAR
STARTCHAR X
ENCODING 88
SWIDTH 461 0
DWIDTH 9 0
BBX 9 14 0 0
BITMAP
0000000490
0C20000C20
0990006900
02E201D100
00A9088000
002E4E1000
000AF70000
0006F20000
000CE90000
006B2E2000
02E2079000
0B7001E200
5D00007A00
0100001D00
ENDCHAR
STARTCHAR Y
ENCODING 89
SWIDTH 483 0
DWIDTH 10 0
BBX 10 16 0 0
BITMAP
0000000041
00000000B2
00000001D0
7100000590
5B00000A50
0C80001E10
02E5006B00
004E40B600
0006E7E100
00007FA000
00001F5000
00003E0000
0000790000
0000C40000
0001E00000
0003A00000
ENDCHAR
STARTCHAR Z
ENCODING 90
SWIDTH 670 0
DWIDTH 13 0
BBX 13 14 0 0
BITMAP
29AA9999999000
143334457ED100
000000006F3000
00000003F60000
0000001D900000
000000BB000000
000008D1000000
00005F30000000
0002E600000000
001D9000000000
00AB0000000000
07D10000000000
3FA77777778990
6FEDCCCBBBA960
ENDCHAR
STARTCHAR bracketleft
ENCODING 91
SWIDTH 470 0
DWIDTH 9 0
BBX 9 25 0 -2
BITMAP
0011233400
7FCCBA8400
7B00000000
6A00000000
4B00000000
3C00000000
2C00000000
0D00000000
0E00000000
0D10000000
0B20000000
0A40000000
0950000000
0770000000
0680000000
0590000000
03A0000000
02B0000000
01C0000000
00C0000000
00D0000000
00E0000000
00E0000250
00F88ADB70
00DC840000
ENDCHAR
STARTCHAR backslash
ENCODING 92
SWIDTH 554 0
DWIDTH 11 0
BBX 11 21 0 0
BITMAP
100000000000
990000000000
2E2000000000
079000000000
00C100000000
006800000000
001D10000000
000880000000
0001E1000000
000098000000
00002E100000
00000A700000
000003E10000
000000C70000
0000005E1000
0000000D7000
00000006D000
00000001E600
000000008D00
000000001F60
0000000009A0
ENDCHAR
STARTCHAR bracketright
ENCODING 93
SWIDTH 512 0
DWIDTH 10 0
BBX 10 26 0 -2
BITMAP
0234467770
CFECA88CE0
00000007D0
00000007C0
00000007B0
00000007B0
00000007B0
00000006B0
00000006B0
00000005C0
00000004C0
00000003D0
00000003E0
00000002E0
00000001F0
00000000F1
00000000E2
00000000D2
00000000D3
00000000C4
00000000C6
00000000C7
00000000B8
00000000B9
00000159FB
0000AECA61
ENDCHAR
STARTCHAR asciicircum
ENCODING 94
SWIDTH 390 0
DWIDTH 8 0
BBX 8 6 0 13
BITMAP
00081000
006DB000
01D28900
07700A70
1C1001D6
45000021
ENDCHAR
STARTCHAR underscore
ENCODING 95
SWIDTH 612 0
DWIDTH 12 0
BBX 12 4 0 0
BITMAP
000000000265
0000037AEFE7
037BEFC96300
8EB741000000
ENDCHAR
STARTCHAR grave
ENCODING 96
SWIDTH 155 0
DWIDTH 3 0
BBX 3 3 0 12
BITMAP
6200
7D10
0A50
ENDCHAR
STARTCHAR a
ENCODING 97
SWIDTH 366 0
DWIDTH 7 0
BBX 7 11 0 0
BITMAP
0003BA00
002EBF30
00BA0F20
05E23F30
0C808F40
3E11ED60
8909A780
C43E24A0
E1C803B0
CDC001C0
49100080
ENDCHAR
STARTCHAR b
ENCODING 98
SWIDTH 442 0
DWIDTH 9 0
BBX 9 17 0 0
BITMAP
0B20000000
1F40000000
0F30000000
0F20000000
1F10000000
1F10000000
1F00033000
1E02CFF800
2E3E726E00
2ED5000D20
3F80000E20
3E10004E00
3B0001D800
4B001CC100
3A04DC1000
3CBF800000
2DA2000000
ENDCHAR
STARTCHAR c
ENCODING 99
SWIDTH 390 0
DWIDTH 8 0
BBX 8 12 0 0
BITMAP
006B5000
04E7C000
0B71E000
0F207000
3D000000
5A000000
68000000
77000091
680001F1
3B0007B0
0C604D30
03DEB200
ENDCHAR
STARTCHAR d
ENCODING 100
SWIDTH 316 0
DWIDTH 6 0
BBX 6 20 0 -2
BITMAP
000043
0000A7
000097
000077
000067
000057
000057
001477
04EDE7
0E9097
5E1078
890088
B500A8
C200E8
C104E8
C20B79
C78939
4C8039
000039
000016
ENDCHAR
STARTCHAR e
ENCODING 101
SWIDTH 461 0
DWIDTH 9 0
BBX 10 11 -1 0
BITMAP
0000486000
0005F9BB00
001E605F10
007C17D400
00DDD91000
07FB200002
1CF200009A
00E10005E2
00D0003E50
00A406D400
003DE92000
ENDCHAR
STARTCHAR f
ENCODING 102
SWIDTH 345 0
DWIDTH 7 0
BBX 7 18 0 0
BITMAP
001B8000
008ED600
00B83A00
00E60100
00F40000
01F20000
02F10000
02F00120
02E29E70
04FEB700
5EF00000
21E10000
00E20000
00D40000
00C50000
00B70000
00A70000
00850000
ENDCHAR
STARTCHAR g
ENCODING 103
SWIDTH 437 0
DWIDTH 9 0
BBX 9 20 0 -9
BITMAP
00019EC200
001C86F600
009708F700
04C01DB900
0B4079AA00
2D00D39B00
7807B08C00
A51E407D00
8BC9006F00
2CA0005F00
0000005F10
0000006F00
0000006E00
0000007B00
000000A700
000000E200
000006B000
00004E3000
027BF60000
0157300000
ENDCHAR
STARTCHAR h
ENCODING 104
SWIDTH 466 0
DWIDTH 9 0
BBX 9 16 0 -1
BITMAP
3600000000
5A00000000
5B00000000
5B00000000
5B00000000
5C0018BA20
5C01CF8B90
5C08F507A0
5D1E9006B0
5D5E1006B0
5DA80006C0
5EE10005C0
5F900005C0
5F200004D0
36000004D0
0000000010
ENDCHAR
STARTCHAR i
ENCODING 105
SWIDTH 132 0
DWIDTH 3 0
BBX 2 16 0 -1
BITMAP
64
22
00
14
4C
5C
5C
5C
5C
5C
4C
4C
3C
3C
2C
01
ENDCHAR
STARTCHAR j
ENCODING 106
SWIDTH 112 0
DWIDTH 2 0
BBX 7 23 -4 -7
BITMAP
00004700
00000000
00000000
00000000
00000000
00001200
00006900
00007900
00007900
00006900
00006A00
00005B00
00004C00
00003D00
00002E00
00001F00
00000F10
00000E10
00000E10
10001E00
5A006A00
07B5D500
00398000
ENDCHAR
STARTCHAR k
ENCODING 107
SWIDTH 428 0
DWIDTH 9 0
BBX 9 17 0 -1
BITMAP
0300000000
0E20000000
0F30000000
0F30000000
1F30001A10
1F2000BC00
2F1006F400
2F001EA000
3E00BE1000
3E07F40000
4E4F700000
5FE6000000
5FB0000000
6DCD610000
6A039EC900
7800016900
5300000000
ENDCHAR
STARTCHAR l
ENCODING 108
SWIDTH 137 0
DWIDTH 3 0
BBX 3 17 0 0
BITMAP
7600
6800
4900
3A00
1B00
1C00
0D00
0D00
0D00
0D00
0D00
0D10
0D10
0D20
0E20
0F30
0810
ENDCHAR
STARTCHAR m
ENCODING 109
SWIDTH 579 0
DWIDTH 12 0
BBX 11 12 0 0
BITMAP
5A0000000000
4C0000001000
3D058104F900
2D1FF60BFE00
1E4EC92E3F20
0E794B790E30
0EA51ED40D40
0ED20DE00C40
0DE00AB00B50
0DB005500A80
0C80000007E0
0A4000000030
ENDCHAR
STARTCHAR n
ENCODING 110
SWIDTH 483 0
DWIDTH 10 0
BBX 9 12 0 0
BITMAP
2300039300
69005FED00
5B01E80B40
4D07E00870
3F0B7007A0
2F2E2006C0
1F6C0005C0
0FC80004D0
0EF40003D0
0DF10002E0
0CC00001E0
0A80000060
ENDCHAR
STARTCHAR o
ENCODING 111
SWIDTH 266 0
DWIDTH 5 0
BBX 5 11 0 0
BITMAP
07F700
0D8B40
2C02B0
5900D0
7800F0
9701F0
9703D0
9706B0
870B50
7B8C00
2EB200
ENDCHAR
STARTCHAR p
ENCODING 112
SWIDTH 482 0
DWIDTH 10 0
BBX 10 17 0 -6
BITMAP
2300000000
7A005BDC80
693C9200D4
6DD30003F1
6E20001C70
5A0001CA00
4A004D9000
4C18F70000
3EDD400000
3F91000000
3C00000000
3B00000000
3B00000000
4A00000000
5900000000
6800000000
2300000000
ENDCHAR
STARTCHAR q
ENCODING 113
SWIDTH 408 0
DWIDTH 8 0
BBX 9 16 0 -6
BITMAP
0000230000
0008EC6000
008B16A000
04C008C000
0C400BE000
3C001CE200
780079C400
8602E39600
5DAD507800
0230006A00
0000004C00
0000002E00
0000000F10
0000000D30
0000000B50
0000000530
ENDCHAR
STARTCHAR r
ENCODING 114
SWIDTH 396 0
DWIDTH 8 0
BBX 8 11 0 0
BITMAP
00000220
6702CFF5
5A0CA200
3C3F1000
1E6B0000
0D890000
0BA80000
09E70000
06F60000
04F40000
01D20000
ENDCHAR
STARTCHAR s
ENCODING 115
SWIDTH 366 0
DWIDTH 7 0
BBX 7 12 0 -1
BITMAP
00000100
002BEE00
04D30100
1D400000
6B000000
78005830
5ECECCE0
055102E0
00002D70
0004E900
008F7000
00630000
ENDCHAR
STARTCHAR t
ENCODING 116
SWIDTH 268 0
DWIDTH 5 0
BBX 7 17 -1 -1
BITMAP
00210000
00B60000
00B50000
00B40000
00C30110
00C9BF60
29FE9200
AEF30000
11E40000
00D40000
00C50000
00B50000
00A60000
00970000
00970000
00880000
00230000
ENDCHAR
STARTCHAR u
ENCODING 117
SWIDTH 387 0
DWIDTH 8 0
BBX 8 11 0 -1
BITMAP
36000540
5A000970
4B000A70
4C000A70
4C000B60
3D000E60
2E005F70
0E10DE90
0B5AD5B0
04FD22F1
00100040
ENDCHAR
STARTCHAR v
ENCODING 118
SWIDTH 354 0
DWIDTH 7 0
BBX 7 11 0 0
BITMAP
00000850
00000B80
52000B80
8C000B80
1E600C70
07D00C60
00D70D50
005E2E40
000BDF40
0002EF40
00005E30
ENDCHAR
STARTCHAR w
ENCODING 119
SWIDTH 566 0
DWIDTH 11 0
BBX 11 11 0 0
BITMAP
000012000100
58008D000A40
3E10AE700A60
0C50C6E20A50
06B0E47A0A60
01F2F30D3A70
00AAF204CA70
004FF100AE80
000DF0002F80
0008E0000680
0002B0000000
ENDCHAR
STARTCHAR x
ENCODING 120
SWIDTH 454 0
DWIDTH 9 0
BBX 9 14 0 -2
BITMAP
00006D0000
00006D0000
22007B0000
8E10880000
1CA0A50000
01CAD30000
001CF30000
0008FC1000
000B9AC100
000F308C10
004E000890
007B000010
00A8000000
0042000000
ENDCHAR
STARTCHAR y
ENCODING 121
SWIDTH 363 0
DWIDTH 7 0
BBX 7 19 0 -8
BITMAP
00000040
100001D0
8A0002D0
2F4003C0
07D004C0
00D705C0
004E25B0
0009C7B0
0001EFA0
00005FA0
00000B90
00000880
00000960
00000A50
00000B40
00000C30
00000E20
00000F10
00000700
ENDCHAR
STARTCHAR z
ENCODING 122
SWIDTH 618 0
DWIDTH 12 0
BBX 13 11 0 -1
BITMAP
000017CD000000
015AE9CC000000
4EB511E7000000
000007D1000000
00001E50000000
00007B00000000
0000D300000000
0004D000147A60
0009C69DFFDA60
000CEB96310000
00020000000000
ENDCHAR
STARTCHAR braceleft
ENCODING 123
SWIDTH 348 0
DWIDTH 7 0
BBX 7 19 0 -2
BITMAP
003CDB50
02E70160
07B00000
07800000
02C00000
00960000
005D0000
6EB40000
1B500000
01D30000
3AE60000
AE500000
B5000000
C2000000
A4000000
7A000000
1E800000
04ED7100
00279300
ENDCHAR
STARTCHAR bar
ENCODING 124
SWIDTH 137 0
DWIDTH 3 0
BBX 3 17 0 0
BITMAP
7600
6800
4900
3A00
1B00
1C00
0D00
0D00
0D00
0D00
0D00
0D10
0D10
0D20
0E20
0F30
0810
ENDCHAR
STARTCHAR braceright
ENCODING 125
SWIDTH 348 0
DWIDTH 7 0
BBX 8 20 -1 -3
BITMAP
02783000
1C46E500
00006C00
00000E00
00002C00
00009600
0002D000
0003D960
00000BA0
00004A00
0000D620
00006EE0
000003F2
000000B3
000000B2
000000D1
000008A0
0002AF30
008FD400
00120000
ENDCHAR
STARTCHAR asciitilde
ENCODING 126
SWIDTH 458 0
DWIDTH 9 0
BBX 9 4 0 11
BITMAP
0033000000
0ACDA02D30
2E12E5CC00
03005DA100
ENDCHAR
STARTCHAR nonbreakingspace
ENCODING 160
SWIDTH 450 0
DWIDTH 9 0
BBX 1 1 0 0
BITMAP
00
ENDCHAR
STARTCHAR exclamdown
ENCODING 161
SWIDTH 137 0
DWIDTH 3 0
BBX 3 13 0 -3
BITMAP
0530
0000
0000
0000
0000
5700
7900
7600
7600
7600
6600
5600
4600
ENDCHAR
STARTCHAR cent
ENCODING 162
SWIDTH 394 0
DWIDTH 8 0
BBX 8 16 0 -2
BITMAP
000D0000
000D1000
005E6000
04ECE900
0B785D10
0F274000
3D064000
5A055000
68055000
77046091
680461F0
3B0467B0
0C64AD30
03DFC300
00069000
00022000
ENDCHAR
STARTCHAR sterling
ENCODING 163
SWIDTH 539 0
DWIDTH 11 0
BBX 11 15 0 -1
BITMAP
000000142000
000007EBE500
00008B102700
0004D1000000
000B40000000
003E68800000
9FFD95000000
129700000000
00B500000000
00C300000000
00E300000000
00E202552000
00E39FCBEB20
00BE71003600
002100000000
ENDCHAR
STARTCHAR currency
ENCODING 164
SWIDTH 500 0
DWIDTH 10 0
BBX 9 13 0 1
BITMAP
0000000100
0000000D50
00A6345F10
009EFFF800
004F42F200
006900B300
007800A400
005900B400
005B03F200
01DE8EE000
09B3CAD300
2F20007500
0300000000
ENDCHAR
STARTCHAR yen
ENCODING 165
SWIDTH 478 0
DWIDTH 10 0
BBX 8 17 1 0
BITMAP
00000010
180002F6
0E6009E1
09D01F70
03F68D00
00BEE500
005FD000
000C9000
00087000
024BBAB4
7FFFEB60
000A7100
8ACEECA0
331A6000
000A6000
000B6000
00084000
ENDCHAR
STARTCHAR brokenbar
ENCODING 166
SWIDTH 137 0
DWIDTH 3 0
BBX 3 17 0 0
BITMAP
7600
6800
4900
3A00
2C00
1D00
0700
0200
0D00
0C10
0C10
0C20
0C20
0D20
0E30
0F30
0810
ENDCHAR
STARTCHAR section
ENCODING 167
SWIDTH 366 0
DWIDTH 7 0
BBX 7 16 0 -1
BITMAP
0028CA00
03D53300
1D400000
7A000000
A5002500
8C9CFFA0
2CE407D0
1D300C60
6B00AA00
782BD830
5FFFCCE0
055102E0
00002D70
0004E900
008F7000
00630000
ENDCHAR
STARTCHAR dieresis
ENCODING 168
SWIDTH 306 0
DWIDTH 6 0
BBX 5 2 1 13
BITMAP
891D30
320500
ENDCHAR
STARTCHAR copyright
ENCODING 169
SWIDTH 485 0
DWIDTH 10 0
BBX 10 14 0 0
BITMAP
0000365000
0008FBCC10
007D300B90
01E34603F1
0886CD40E4
0D2E3440D6
3B2E0000D6
684C0004E4
863C004FF1
A50D56EEA0
A604BA7E20
790002E600
2E769E6000
06EEA30000
ENDCHAR
STARTCHAR ordfeminine
ENCODING 170
SWIDTH 227 0
DWIDTH 5 0
BBX 5 6 0 3
BITMAP
001100
04AA00
2A3A00
83AA00
975800
960610
ENDCHAR
STARTCHAR guillemotleft
ENCODING 171
SWIDTH 652 0
DWIDTH 13 0
BBX 11 11 1 2
BITMAP
000000800490
00001BA06E40
0002DB18E500
004E91BD3000
07E52D910000
9C22E6000000
DA11DA100000
1BD52BE60000
006EB35EC500
00019F718F30
000003100100
ENDCHAR
STARTCHAR logicalnot
ENCODING 172
SWIDTH 539 0
DWIDTH 11 0
BBX 9 6 1 2
BITMAP
59ABCDDEA0
24333222C0
00000000D0
00000000E0
00000000F0
0000000050
ENDCHAR
STARTCHAR uni00AD
ENCODING 173
SWIDTH 399 0
DWIDTH 8 0
BBX 8 4 0 3
BITMAP
00000263
0005BFC5
5AEB6200
34100000
ENDCHAR
STARTCHAR registered
ENCODING 174
SWIDTH 382 0
DWIDTH 8 0
BBX 10 14 0 0
BITMAP
0000131000
0007FFE400
007A538E20
02A00007A0
097B8BA3E1
0E3E2086C4
3C2B3B90B6
692ED400C6
872CC911F4
A53A06DAE1
A628001E80
7900008D10
2E945BD200
06EFC70000
ENDCHAR
STARTCHAR macron
ENCODING 175
SWIDTH 399 0
DWIDTH 8 0
BBX 8 2 0 13
BITMAP
24689BC6
69876431
ENDCHAR
STARTCHAR degree
ENCODING 176
SWIDTH 201 0
DWIDTH 4 0
BBX 4 4 0 7
BITMAP
1AC3
6638
5A96
0430
ENDCHAR
STARTCHAR plusminus
ENCODING 177
SWIDTH 466 0
DWIDTH 9 0
BBX 8 10 0 1
BITMAP
00075000
00085000
00085000
00085243
000AEC93
7DCE9000
11089000
00059000
0359DDE7
08754210
ENDCHAR
STARTCHAR twosuperior
ENCODING 178
SWIDTH 318 0
DWIDTH 6 0
BBX 6 7 0 3
BITMAP
005100
2A5800
510800
002600
007200
019275
068510
ENDCHAR
STARTCHAR threesuperior
ENCODING 179
SWIDTH 280 0
DWIDTH 6 0
BBX 6 8 0 3
BITMAP
058800
740700
009200
08B770
050063
000091
001A30
00A200
ENDCHAR
STARTCHAR acute
ENCODING 180
SWIDTH 155 0
DWIDTH 3 0
BBX 3 4 0 11
BITMAP
0140
1C90
8B10
1000
ENDCHAR
STARTCHAR mu
ENCODING 181
SWIDTH 387 0
DWIDTH 8 0
BBX 7 14 0 -3
BITMAP
36000540
6A000980
6B000A90
6C000A90
6D000B90
6D000E90
6E005FA0
6F11DFA0
6F5AD7C0
7DFB2250
76000000
75000000
75000000
32000000
ENDCHAR
STARTCHAR paragraph
ENCODING 182
SWIDTH 447 0
DWIDTH 9 0
BBX 9 13 0 0
BITMAP
0048ABB600
0BFFFFDA00
5FFFFE1B00
7FFFEF1B00
5FFB4F1C00
00000F2D00
00000E3D00
00000D4E00
00000C4E00
00000B5E00
00000A6D00
00000A6C10
0000073610
ENDCHAR
STARTCHAR periodcentered
ENCODING 183
SWIDTH 128 0
DWIDTH 3 0
BBX 2 2 0 4
BITMAP
48
46
ENDCHAR
STARTCHAR cedilla
ENCODING 184
SWIDTH 322 0
DWIDTH 6 0
BBX 5 7 1 -6
BITMAP
720000
B40000
AB2000
4DF900
004E90
016EC0
9FD930
ENDCHAR
STARTCHAR onesuperior
ENCODING 185
SWIDTH 112 0
DWIDTH 2 0
BBX 2 7 0 3
BITMAP
44
55
66
66
57
48
28
ENDCHAR
STARTCHAR ordmasculine
ENCODING 186
SWIDTH 212 0
DWIDTH 4 0
BBX 4 6 0 3
BITMAP
0660
3A48
840B
A30D
9349
6B91
ENDCHAR
STARTCHAR guillemotright
ENCODING 187
SWIDTH 625 0
DWIDTH 13 0
BBX 11 12 1 2
BITMAP
100130000000
E914F9100000
3BE73BE70000
005CD44CD500
00006D905D60
000005B00B40
00002D309A00
0004E51BB100
007F53DA0000
0AE45F800000
BC23E5000000
700220000000
ENDCHAR
STARTCHAR onequarter
ENCODING 188
SWIDTH 678 0
DWIDTH 14 0
BBX 13 16 0 -2
BITMAP
00000D10000000
00003B00000000
00008700000000
5400C200042000
5502C0003F5000
56068001DE5000
660B300A895000
671D0079095000
575906A0097540
48A46F889D9420
28D15310095000
04A00000095000
08500000095000
0C100000094000
2B000000000000
14000000000000
ENDCHAR
STARTCHAR onehalf
ENCODING 189
SWIDTH 693 0
DWIDTH 14 0
BBX 11 16 1 -2
BITMAP
00000D100000
00003B000000
200086000000
9000D2000000
9002C0000000
A00770430000
A00B4B8D0000
B01EB3092000
B059200A1000
B0A4000C0000
90D000480000
049000B20030
095005A69A50
0D1009840000
3A0000000000
240000000000
ENDCHAR
STARTCHAR threequarters
ENCODING 190
SWIDTH 868 0
DWIDTH 17 0
BBX 14 16 0 -2
BITMAP
00003000009500
039AC60000D200
1C20640003BD10
0003A00007CF10
002D64100CFD10
02DB54A32F8A10
014000577F1A10
000000A3F80A23
00000873F49EA6
0002B80FF51A10
000A5009400A10
0000000D000A10
0000004A000A10
00000085000900
000000C1000000
00000060000000
ENDCHAR
STARTCHAR questiondown
ENCODING 191
SWIDTH 541 0
DWIDTH 11 0
BBX 10 17 1 -1
BITMAP
00004B0000
0000010000
0000000000
0000000000
0000000000
0000000000
0006982000
00064BD000
000005D000
00004E5000
0006F60000
006E400000
03D2000000
0D30000000
3C00000592
3E5347DD71
039A963000
ENDCHAR
STARTCHAR Agrave
ENCODING 192
SWIDTH 390 0
DWIDTH 8 0
BBX 10 20 0 -2
BITMAP
0062000000
006D100000
000A600000
0000000000
00A5000000
00DD000000
00EF400000
01F4A00000
03E0D10000
04C0950000
06B04B0000
08A01E2154
09800CDC88
0B818FA000
0CFB66D000
0D6000E100
0F00009500
1E00005900
1600001A00
0000000100
ENDCHAR
STARTCHAR Aacute
ENCODING 193
SWIDTH 390 0
DWIDTH 8 0
BBX 10 20 0 -1
BITMAP
0014000000
01C8000000
09B0000000
0200000000
00E2000000
02F9000000
04FE100000
06B8500000
0793A00000
0980D10000
0A60960000
0C505C0362
0E401FDB85
0F33BF5000
1FEA5A8000
3E2003C000
4B0000E100
6900009500
3400004700
0000000100
ENDCHAR
STARTCHAR Acircumflex
ENCODING 194
SWIDTH 390 0
DWIDTH 8 0
BBX 11 22 -1 -1
BITMAP
001800000000
008D90000000
02D1A7000000
09501C500000
3C0002D40000
630000200000
000E20000000
002F90000000
004FE1000000
006B85000000
00793A000000
00980D100000
00A609600000
00C505C03620
00E401FDB850
00F33BF50000
01FEA5A80000
03E2003C0000
04B0000E1000
069000095000
034000047000
000000001000
ENDCHAR
STARTCHAR Atilde
ENCODING 195
SWIDTH 390 0
DWIDTH 8 0
BBX 11 22 -1 -1
BITMAP
002300000000
0ACDB02D3000
2E12E5CC0000
03005DA10000
000000000000
000000000000
000E20000000
002F90000000
004FE1000000
006B85000000
00793A000000
00980D100000
00A609600000
00C505C03620
00E401FDB850
00F33BF50000
01FEA5A80000
03E2003C0000
04B0000E1000
069000095000
034000047000
000000001000
ENDCHAR
STARTCHAR Adieresis
ENCODING 196
SWIDTH 390 0
DWIDTH 8 0
BBX 10 19 0 -1
BITMAP
0B64D10000
0411400000
0000000000
00E2000000
02F9000000
04FE100000
06B8500000
0793A00000
0980D10000
0A60960000
0C505C0362
0E401FDB85
0F33BF5000
1FEA5A8000
3E2003C000
4B0000E100
6900009500
3400004700
0000000100
ENDCHAR
STARTCHAR Aring
ENCODING 197
SWIDTH 390 0
DWIDTH 8 0
BBX 10 19 0 -1
BITMAP
17A8100000
C94B800000
C508A00000
4BFA200000
02F9000000
04FE100000
06B8500000
0793A00000
0980D10000
0A60960000
0C505C0362
0E401FDB85
0F33BF5000
1FEA5A8000
3E2003C000
4B0000E100
6900009500
3400004700
0000000100
ENDCHAR
STARTCHAR AE
ENCODING 198
SWIDTH 708 0
DWIDTH 14 0
BBX 14 15 0 0
BITMAP
00E20120002750
02F908B05CD600
04FE14EDD60000
06B853F6000000
0793A1E0000000
0980D1E0000510
0A6096E003A600
0C505CD5AA1000
0E401FFD400000
0F33BFF7000000
1FEA59F70001AA
3E2003F7004D60
4B0000E629C200
690000CDE70000
34000067100000
ENDCHAR
STARTCHAR Ccedilla
ENCODING 199
SWIDTH 487 0
DWIDTH 10 0
BBX 10 22 0 -7
BITMAP
0000582000
0008C8D000
004C104100
00B4000000
02D0000000
0780000000
0B40000000
0E00000000
3C00000000
59000000A2
78000005E0
7800001E40
6A0001C700
1E304D6000
05EFB30000
000E000000
000F300000
000CF91000
00015CE200
000002F800
0008CFD400
0005530000
ENDCHAR
STARTCHAR Egrave
ENCODING 200
SWIDTH 474 0
DWIDTH 10 0
BBX 10 18 0 0
BITMAP
0045000000
003E200000
0007900000
0200115600
4E039E9200
1FBE920000
0E92000000
0D20000000
0B30002200
0A4017C100
0A56D70000
09E9100000
09B0000000
09A00007D1
09A002BA10
09A06D5000
09ED910000
06A3000000
ENDCHAR
STARTCHAR Eacute
ENCODING 201
SWIDTH 474 0
DWIDTH 10 0
BBX 10 18 0 0
BITMAP
0000050000
0000AB0000
0006C20000
0201115600
4E039E9200
1FBE920000
0E92000000
0D20000000
0B30002200
0A4017C100
0A56D70000
09E9100000
09B0000000
09A00007D1
09A002BA10
09A06D5000
09ED910000
06A3000000
ENDCHAR
STARTCHAR Ecircumflex
ENCODING 202
SWIDTH 474 0
DWIDTH 10 0
BBX 10 21 0 0
BITMAP
0000810000
0007DA0000
001D188000
008700B600
02C0001D50
0540000210
0200015600
4E039E9200
1FBE920000
0E92000000
0D20000000
0B30002200
0A4017C100
0A56D70000
09E9100000
09B0000000
09A00007D1
09A002BA10
09A06D5000
09ED910000
06A3000000
ENDCHAR
STARTCHAR Edieresis
ENCODING 203
SWIDTH 474 0
DWIDTH 10 0
BBX 10 18 0 0
BITMAP
007A0C5000
0023041000
0000000000
0200015600
4E039E9200
1FBE920000
0E92000000
0D20000000
0B30002200
0A4017C100
0A56D70000
09E9100000
09B0000000
09A00007D1
09A002BA10
09A06D5000
09ED910000
06A3000000
ENDCHAR
STARTCHAR Igrave
ENCODING 204
SWIDTH 153 0
DWIDTH 3 0
BBX 3 19 0 0
BITMAP
6200
7D10
0A50
0000
0C10
0C30
0B40
0A50
0A50
0960
0960
0970
0970
0870
0870
0870
0870
0770
0560
ENDCHAR
STARTCHAR Iacute
ENCODING 205
SWIDTH 153 0
DWIDTH 3 0
BBX 3 19 0 0
BITMAP
0050
08D0
3E30
0100
0C10
0C30
0B40
0A50
0A50
0960
0960
0970
0970
0870
0870
0870
0870
0770
0560
ENDCHAR
STARTCHAR Icircumflex
ENCODING 206
SWIDTH 153 0
DWIDTH 3 0
BBX 8 21 -2 0
BITMAP
00081000
007DA000
01D18800
08700B60
2C0001D5
54000021
000C1000
000C3000
000B4000
000A5000
000A5000
00096000
00096000
00097000
00097000
00087000
00087000
00087000
00087000
00077000
00056000
ENDCHAR
STARTCHAR Idieresis
ENCODING 207
SWIDTH 153 0
DWIDTH 3 0
BBX 5 18 -1 0
BITMAP
2D27A0
040320
000000
00C100
00C300
00B400
00A500
00A500
009600
009600
009700
009700
008700
008700
008700
008700
007700
005600
ENDCHAR
STARTCHAR Eth
ENCODING 208
SWIDTH 554 0
DWIDTH 11 0
BBX 11 15 0 0
BITMAP
008000000000
02FBBA851000
3EF63459D800
44F200001C50
00F200000590
00E200000670
00D200000B20
00B300005B00
00A40001D300
0097530B8000
6CEFE69C0000
11A808D10000
00666E300000
0027E3000000
000B30000000
ENDCHAR
STARTCHAR Ntilde
ENCODING 209
SWIDTH 541 0
DWIDTH 11 0
BBX 11 19 0 0
BITMAP
002300000000
09DCC01D4000
1E21E6BD1000
03004DB13000
00000002E100
00000000E400
58000000C500
5F800000B600
3FF50000A600
2F7E20009600
0F28C0008700
0D20B8008700
0B401D408800
0A6003D28800
0880006C9800
06A00009F900
05B00000CD00
03C000006E10
02B000000000
ENDCHAR
STARTCHAR Ograve
ENCODING 210
SWIDTH 382 0
DWIDTH 8 0
BBX 8 18 0 0
BITMAP
00007100
00008B00
00001C40
00000100
00026300
004EEF50
01D605E0
06A000E2
0C6000C5
1F1000B5
4C0000C5
790000E3
970001F1
A50006C0
A6000B80
79004E10
2E76E500
06EC4000
ENDCHAR
STARTCHAR Oacute
ENCODING 211
SWIDTH 382 0
DWIDTH 8 0
BBX 8 18 0 0
BITMAP
00004000
000BA000
007C1000
00110000
00026300
004EEF50
01D605E0
06A000E2
0C6000C5
1F1000B5
4C0000C5
790000E3
970001F1
A50006C0
A6000B80
79004E10
2E76E500
06EC4000
ENDCHAR
STARTCHAR Ocircumflex
ENCODING 212
SWIDTH 382 0
DWIDTH 8 0
BBX 8 19 0 0
BITMAP
00180000
008D9000
02D1A700
0A501C50
3B0002D4
63026320
004EEF50
01D605E0
06A000E2
0C6000C5
1F1000B5
4C0000C5
790000E3
970001F1
A50006C0
A6000B80
79004E10
2E76E500
06EC4000
ENDCHAR
STARTCHAR Otilde
ENCODING 213
SWIDTH 382 0
DWIDTH 8 0
BBX 9 18 0 0
BITMAP
0024100000
07DBD00C60
0E30D8AE20
03003DB200
0002630000
004EEF5000
01D605E000
06A000E200
0C6000C500
1F1000B500
4C0000C500
790000E300
970001F100
A50006C000
A6000B8000
79004E1000
2E76E50000
06EC400000
ENDCHAR
STARTCHAR Odieresis
ENCODING 214
SWIDTH 382 0
DWIDTH 8 0
BBX 8 16 0 0
BITMAP
001C45C0
00050230
00026300
004EEF50
01D605E0
06A000E2
0C6000C5
1F1000B5
4C0000C5
790000E3
970001F1
A50006C0
A6000B80
79004E10
2E76E500
06EC4000
ENDCHAR
STARTCHAR multiply
ENCODING 215
SWIDTH 454 0
DWIDTH 9 0
BBX 6 8 1 2
BITMAP
230000
2C004D
0792E3
00CE60
01DE10
0B65A0
6900D4
000032
ENDCHAR
STARTCHAR Oslash
ENCODING 216
SWIDTH 382 0
DWIDTH 8 0
BBX 8 16 0 -2
BITMAP
00026A60
004EEF50
01D62EE0
06A077E2
0C60B3C5
1F11D0B5
4C0580C5
790A40E3
970D01F1
A54A06C0
A6950B80
79D14E10
2ED6E500
09FC4000
0C100000
06000000
ENDCHAR
STARTCHAR Ugrave
ENCODING 217
SWIDTH 450 0
DWIDTH 9 0
BBX 9 19 0 -3
BITMAP
0008000000
000B900000
0001D10000
0000100400
4A00000D50
6D00001F50
5D00003F50
5D00005F40
4D00008F30
4D0000BF20
3D0000EF20
3D0003DC20
2D00088B30
0E001D1950
0BA4B50860
02AB500680
0000000590
0000000390
0000000110
ENDCHAR
STARTCHAR Uacute
ENCODING 218
SWIDTH 450 0
DWIDTH 9 0
BBX 9 18 0 -3
BITMAP
0000050000
00007E0000
0003E30400
4A00100D50
6D00001F50
5D00003F50
5D00005F40
4D00008F30
4D0000BF20
3D0000EF20
3D0003DC20
2D00088B30
0E001D1950
0BA4B50860
02AB500680
0000000590
0000000390
0000000110
ENDCHAR
STARTCHAR Ucircumflex
ENCODING 219
SWIDTH 450 0
DWIDTH 9 0
BBX 9 22 0 -3
BITMAP
0004500000
001DD40000
00782D2000
01D104D100
0860006D00
0900000300
0000000400
4A00000D50
6D00001F50
5D00003F50
5D00005F40
4D00008F30
4D0000BF20
3D0000EF20
3D0003DC20
2D00088B30
0E001D1950
0BA4B50860
02AB500680
0000000590
0000000390
0000000110
ENDCHAR
STARTCHAR Udieresis
ENCODING 220
SWIDTH 450 0
DWIDTH 9 0
BBX 9 18 0 -3
BITMAP
005C0A7000
0013041000
0000000400
4A00000D50
6D00001F50
5D00003F50
5D00005F40
4D00008F30
4D0000BF20
3D0000EF20
3D0003DC20
2D00088B30
0E001D1950
0BA4B50860
02AB500680
0000000590
0000000390
0000000110
ENDCHAR
STARTCHAR Yacute
ENCODING 221
SWIDTH 483 0
DWIDTH 10 0
BBX 10 19 0 0
BITMAP
0000014000
00001C9000
00008B1000
0000100041
00000000B2
00000001D0
7100000590
5B00000A50
0C80001E10
02E5006B00
004E40B600
0006E7E100
00007FA000
00001F5000
00003E0000
0000790000
0000C40000
0001E00000
0003A00000
ENDCHAR
STARTCHAR Thorn
ENCODING 222
SWIDTH 398 0
DWIDTH 8 0
BBX 8 17 0 0
BITMAP
02000000
0F200000
1F000000
2D000100
2D07DFA0
3E9C54E5
4FC00088
4F300078
5C0000C6
5C0006D1
6B006D20
6B4CA100
6FD50000
6C000000
6C000000
5C000000
27000000
ENDCHAR
STARTCHAR germandbls
ENCODING 223
SWIDTH 537 0
DWIDTH 11 0
BBX 11 15 0 0
BITMAP
000026720000
422AD9AB0000
6DD600790000
2F4002D20000
0F101C400000
0D10A87AB910
0B5AFB412D30
09EF60001C00
06F500009400
04C000089000
02C0008C0000
00E008D10000
00D26E200000
00A392000000
006200000000
ENDCHAR
STARTCHAR agrave
ENCODING 224
SWIDTH 366 0
DWIDTH 7 0
BBX 7 15 0 0
BITMAP
00720000
008C0000
000B4000
00010000
0003BA00
002EBF30
00BA0F20
05E23F30
0C808F40
3E11ED60
8909A780
C43E24A0
E1C803B0
CDC001C0
49100080
ENDCHAR
STARTCHAR aacute
ENCODING 225
SWIDTH 366 0
DWIDTH 7 0
BBX 7 15 0 0
BITMAP
00004100
0005F200
001E5000
00020000
0003BA00
002EBF30
00BA0F20
05E23F30
0C808F40
3E11ED60
8909A780
C43E24A0
E1C803B0
CDC001C0
49100080
ENDCHAR
STARTCHAR acircumflex
ENCODING 226
SWIDTH 366 0
DWIDTH 7 0
BBX 8 19 0 0
BITMAP
00270000
00BD6000
04B0C400
0C302D30
590003E2
71000030
00000000
00000000
0003BA00
002EBF30
00BA0F20
05E23F30
0C808F40
3E11ED60
8909A780
C43E24A0
E1C803B0
CDC001C0
49100080
ENDCHAR
STARTCHAR atilde
ENCODING 227
SWIDTH 366 0
DWIDTH 7 0
BBX 8 16 0 0
BITMAP
00330000
1CBE705D
6B05E5E8
22008E70
00000000
0003BA00
002EBF30
00BA0F20
05E23F30
0C808F40
3E11ED60
8909A780
C43E24A0
E1C803B0
CDC001C0
49100080
ENDCHAR
STARTCHAR adieresis
ENCODING 228
SWIDTH 366 0
DWIDTH 7 0
BBX 7 15 0 0
BITMAP
03D18900
01403200
00000000
00000000
0003BA00
002EBF30
00BA0F20
05E23F30
0C808F40
3E11ED60
8909A780
C43E24A0
E1C803B0
CDC001C0
49100080
ENDCHAR
STARTCHAR aring
ENCODING 229
SWIDTH 366 0
DWIDTH 7 0
BBX 7 14 0 0
BITMAP
00278400
02E76E30
03E10C50
009DEF10
002EBF30
00BA0F20
05E23F30
0C808F40
3E11ED60
8909A780
C43E24A0
E1C803B0
CDC001C0
49100080
ENDCHAR
STARTCHAR ae
ENCODING 230
SWIDTH 705 0
DWIDTH 14 0
BBX 14 12 0 0
BITMAP
00000000021000
0003BA02DEE600
002EBF3CA05F10
00BA0F7E12C900
05E23FDB9D5000
0C808FFE810000
3E11EFF4000058
8909A8F10002E5
C43F24F0001C90
E1C803F101B900
CDC001FCAD6000
49100084510000
ENDCHAR
STARTCHAR ccedilla
ENCODING 231
SWIDTH 390 0
DWIDTH 8 0
BBX 8 19 0 -7
BITMAP
006B5000
04E7C000
0B71E000
0F207000
3D000000
5A000000
68000000
77000091
680001F1
3B0007B0
0C604D30
03EEB200
00D20000
00D91000
006EE600
00006F60
00015EA0
00AFEA20
00110000
ENDCHAR
STARTCHAR egrave
ENCODING 232
SWIDTH 461 0
DWIDTH 9 0
BBX 10 15 -1 0
BITMAP
0000710000
00009B0000
00001C3000
0000010000
0000486000
0005F9BB00
001E605F10
007C17D400
00DDD91000
07FB200002
1CF200009A
00E10005E2
00D0003E50
00A406D400
003DE92000
ENDCHAR
STARTCHAR eacute
ENCODING 233
SWIDTH 461 0
DWIDTH 9 0
BBX 10 15 -1 0
BITMAP
0000004100
000006E100
00001E4000
0000020000
0000486000
0005F9BB00
001E605F10
007C17D400
00DDD91000
07FB200002
1CF200009A
00E10005E2
00D0003E50
00A406D400
003DE92000
ENDCHAR
STARTCHAR ecircumflex
ENCODING 234
SWIDTH 461 0
DWIDTH 9 0
BBX 10 19 -1 0
BITMAP
0000360000
0000CD5000
0005A1C400
000C202D20
00680004E1
0081000030
0000000000
0000000000
0000486000
0005F9BB00
001E605F10
007C17D400
00DDD91000
07FB200002
1CF200009A
00E10005E2
00D0003E50
00A406D400
003DE92000
ENDCHAR
STARTCHAR edieresis
ENCODING 235
SWIDTH 461 0
DWIDTH 9 0
BBX 10 15 -1 0
BITMAP
0003D19900
0001403200
0000000000
0000000000
0000486000
0005F9BB00
001E605F10
007C17D400
00DDD91000
07FB200002
1CF200009A
00E10005E2
00D0003E50
00A406D400
003DE92000
ENDCHAR
STARTCHAR igrave
ENCODING 236
SWIDTH 132 0
DWIDTH 3 0
BBX 3 18 -1 -1
BITMAP
0200
1E20
09B0
0070
0000
0140
04C0
05C0
05C0
05C0
05C0
05C0
04C0
04C0
03C0
03C0
02C0
0010
ENDCHAR
STARTCHAR iacute
ENCODING 237
SWIDTH 132 0
DWIDTH 3 0
BBX 3 18 0 -1
BITMAP
02A0
1D80
5800
0000
0000
1400
4C00
5C00
5C00
5C00
5C00
5C00
4C00
4C00
3C00
3C00
2C00
0100
ENDCHAR
STARTCHAR icircumflex
ENCODING 238
SWIDTH 132 0
DWIDTH 3 0
BBX 8 20 -3 -1
BITMAP
00064000
002DD200
00A63C10
03C006B0
0B40009A
18000002
00000000
00014000
0004C000
0005C000
0005C000
0005C000
0005C000
0005C000
0004C000
0004C000
0003C000
0003C000
0002C000
00001000
ENDCHAR
STARTCHAR idieresis
ENCODING 239
SWIDTH 132 0
DWIDTH 3 0
BBX 5 16 -1 -1
BITMAP
7A0C40
220400
000000
014000
04C000
05C000
05C000
05C000
05C000
05C000
04C000
04C000
03C000
03C000
02C000
001000
ENDCHAR
STARTCHAR eth
ENCODING 240
SWIDTH 481 0
DWIDTH 10 0
BBX 9 14 1 -1
BITMAP
0012000000
004E100000
000B700000
0003E11310
039BFEDA30
03655D0000
01100C4000
1EFB287000
7B5BD68000
95009E7000
76004F3000
2C22C90000
06FE700000
0010000000
ENDCHAR
STARTCHAR ntilde
ENCODING 241
SWIDTH 483 0
DWIDTH 10 0
BBX 9 17 0 0
BITMAP
0003200000
02DBE506C0
07A06D5E70
021009D600
0000000000
2300039300
69005FED00
5B01E80B40
4D07E00870
3F0B7007A0
2F2E2006C0
1F6C0005C0
0FC80004D0
0EF40003D0
0DF10002E0
0CC00001E0
0A80000060
ENDCHAR
STARTCHAR ograve
ENCODING 242
SWIDTH 266 0
DWIDTH 5 0
BBX 5 15 0 0
BITMAP
072000
08C000
00B400
001000
07F700
0D8B40
2C02B0
5900D0
7800F0
9701F0
9703D0
9706B0
870B50
7B8C00
2EB200
ENDCHAR
STARTCHAR oacute
ENCODING 243
SWIDTH 266 0
DWIDTH 5 0
BBX 5 15 0 0
BITMAP
000410
005F20
01E500
002000
07F700
0D8B40
2C02B0
5900D0
7800F0
9701F0
9703D0
9706B0
870B50
7B8C00
2EB200
ENDCHAR
STARTCHAR ocircumflex
ENCODING 244
SWIDTH 266 0
DWIDTH 5 0
BBX 8 19 -1 0
BITMAP
00270000
00BD6000
04B0C400
0C302D30
590003E2
71000030
00000000
00000000
007F7000
00D8B400
02C02B00
05900D00
07800F00
09701F00
09703D00
09706B00
0870B500
07B8C000
02EB2000
ENDCHAR
STARTCHAR otilde
ENCODING 245
SWIDTH 266 0
DWIDTH 5 0
BBX 8 16 -1 0
BITMAP
00320000
2DBE606C
7A06D5E7
21009D60
00000000
007F7000
00D8B400
02C02B00
05900D00
07800F00
09701F00
09703D00
09706B00
0870B500
07B8C000
02EB2000
ENDCHAR
STARTCHAR odieresis
ENCODING 246
SWIDTH 266 0
DWIDTH 5 0
BBX 5 15 0 0
BITMAP
2D28A0
140320
000000
000000
07F700
0D8B40
2C02B0
5900D0
7800F0
9701F0
9703D0
9706B0
870B50
7B8C00
2EB200
ENDCHAR
STARTCHAR divide
ENCODING 247
SWIDTH 345 0
DWIDTH 7 0
BBX 7 7 0 2
BITMAP
00250000
00270000
01346720
5CBA9930
00000000
00060000
00080000
ENDCHAR
STARTCHAR oslash
ENCODING 248
SWIDTH 266 0
DWIDTH 5 0
BBX 6 14 0 -2
BITMAP
000063
07F8D1
0D8B90
2C0AB0
591DD0
7868F0
97B3F0
99C3D0
9E76B0
8F1B50
7D8C00
8EB200
D10000
600000
ENDCHAR
STARTCHAR ugrave
ENCODING 249
SWIDTH 387 0
DWIDTH 8 0
BBX 8 16 0 -1
BITMAP
00530000
005E1000
00097000
00001000
00000000
36000540
5A000970
4B000A70
4C000A70
4C000B60
3D000E60
2E005F70
0E10DE90
0B5AD5B0
04FD22F1
00100040
ENDCHAR
STARTCHAR uacute
ENCODING 250
SWIDTH 387 0
DWIDTH 8 0
BBX 8 16 0 -1
BITMAP
00003200
0003E500
000C8000
00020000
00000000
36000540
5A000970
4B000A70
4C000A70
4C000B60
3D000E60
2E005F70
0E10DE90
0B5AD5B0
04FD22F1
00100040
ENDCHAR
STARTCHAR ucircumflex
ENCODING 251
SWIDTH 387 0
DWIDTH 8 0
BBX 8 20 0 -1
BITMAP
00180000
008DA000
01D19800
09600C50
2C0001D4
54000021
00000000
00000000
00000000
36000540
5A000970
4B000A70
4C000A70
4C000B60
3D000E60
2E005F70
0E10DE90
0B5AD5B0
04FD22F1
00100040
ENDCHAR
STARTCHAR udieresis
ENCODING 252
SWIDTH 387 0
DWIDTH 8 0
BBX 8 16 0 -1
BITMAP
01C45C00
00502300
00000000
00000000
00000000
36000540
5A000970
4B000A70
4C000A70
4C000B60
3D000E60
2E005F70
0E10DE90
0B5AD5B0
04FD22F1
00100040
ENDCHAR
STARTCHAR yacute
ENCODING 253
SWIDTH 363 0
DWIDTH 7 0
BBX 7 23 0 -8
BITMAP
00004100
0005E200
001E5000
00020000
00000040
100001D0
8A0002D0
2F4003C0
07D004C0
00D705C0
004E25B0
0009C7B0
0001EFA0
00005FA0
00000B90
00000880
00000960
00000A50
00000B40
00000C30
00000E20
00000F10
00000700
ENDCHAR
STARTCHAR thorn
ENCODING 254
SWIDTH 439 0
DWIDTH 9 0
BBX 9 14 0 -1
BITMAP
5A00011000
6B06CCBB10
5BB9200A50
5F70001E20
4D00009600
3B00099000
2C02C90000
1E7E800000
1FE5000000
1E10000000
2C00000000
2B00000000
4B00000000
2400000000
ENDCHAR
STARTCHAR ydieresis
ENCODING 255
SWIDTH 363 0
DWIDTH 7 0
BBX 7 23 0 -8
BITMAP
03D18900
01403200
00000000
00000000
00000040
100001D0
8A0002D0
2F4003C0
07D004C0
00D705C0
004E25B0
0009C7B0
0001EFA0
00005FA0
00000B90
00000880
00000960
00000A50
00000B40
00000C30
00000E20
00000F10
00000700
ENDCHAR
STARTCHAR Amacron
ENCODING 256
SWIDTH 390 0
DWIDTH 8 0
BBX 10 19 0 -1
BITMAP
3468ACC200
8976543100
0000000000
00E2000000
02F9000000
04FE100000
06B8500000
0793A00000
0980D10000
0A60960000
0C505C0362
0E401FDB85
0F33BF5000
1FEA5A8000
3E2003C000
4B0000E100
6900009500
3400004700
0000000100
ENDCHAR
STARTCHAR amacron
ENCODING 257
SWIDTH 366 0
DWIDTH 7 0
BBX 8 15 0 0
BITMAP
2468ABC3
89865431
00000000
00000000
0003BA00
002EBF30
00BA0F20
05E23F30
0C808F40
3E11ED60
8909A780
C43E24A0
E1C803B0
CDC001C0
49100080
ENDCHAR
STARTCHAR Abreve
ENCODING 258
SWIDTH 390 0
DWIDTH 8 0
BBX 10 20 0 -1
BITMAP
0600190000
0994CA0000
00AFA10000
0000000000
00E2000000
02F9000000
04FE100000
06B8500000
0793A00000
0980D10000
0A60960000
0C505C0362
0E401FDB85
0F33BF5000
1FEA5A8000
3E2003C000
4B0000E100
6900009500
3400004700
0000000100
ENDCHAR
STARTCHAR abreve
ENCODING 259
SWIDTH 366 0
DWIDTH 7 0
BBX 7 15 0 0
BITMAP
03300740
03D47E20
005ED400
00000000
0003BA00
002EBF30
00BA0F20
05E23F30
0C808F40
3E11ED60
8909A780
C43E24A0
E1C803B0
CDC001C0
49100080
ENDCHAR
STARTCHAR Aogonek
ENCODING 260
SWIDTH 390 0
DWIDTH 8 0
BBX 10 20 0 -5
BITMAP
00E2000000
02F9000000
04FE100000
06B8500000
0793A00000
0980D10000
0A60960000
0C505C0362
0E401FDB85
0F33BF5000
1FEA5A8000
3E2003C000
4B0000E100
690000A500
3400007700
000004D300
00000D5000
00001F0000
00000D65B7
000004CD91
ENDCHAR
STARTCHAR aogonek
ENCODING 261
SWIDTH 366 0
DWIDTH 7 0
BBX 9 16 0 -5
BITMAP
0003BA0000
002EBF3000
00BA0F2000
05E23F3000
0C808F4000
3E11ED6000
8909A78000
C43E24A000
E1C803B000
CDC002C000
49100BA000
00007C0000
0000B60000
0000A71580
00003EFE70
0000002000
ENDCHAR
STARTCHAR Cacute
ENCODING 262
SWIDTH 487 0
DWIDTH 10 0
BBX 10 19 0 -1
BITMAP
0000040000
00006E1000
0002E40000
0000782000
0008C8D000
004C104100
00B4000000
02D0000000
0780000000
0B40000000
0E00000000
3C00000000
59000000A2
78000005E0
7800001E40
6A0001C700
1E304D6000
05EFB30000
0001000000
ENDCHAR
STARTCHAR cacute
ENCODING 263
SWIDTH 390 0
DWIDTH 8 0
BBX 8 17 0 0
BITMAP
00005000
0009D000
004D2000
00110000
00000000
006B5000
04E7C000
0B71E000
0F207000
3D000000
5A000000
68000000
77000091
680001F1
3B0007B0
0C604D30
03DEB200
ENDCHAR
STARTCHAR Ccircumflex
ENCODING 264
SWIDTH 487 0
DWIDTH 10 0
BBX 10 21 0 -1
BITMAP
0002700000
0009D80000
003C0B6000
00B401D400
04B0002E30
0720582200
0008C8D000
004C104100
00B4000000
02D0000000
0780000000
0B40000000
0E00000000
3C00000000
59000000A2
78000005E0
7800001E40
6A0001C700
1E304D6000
05EFB30000
0001000000
ENDCHAR
STARTCHAR ccircumflex
ENCODING 265
SWIDTH 390 0
DWIDTH 8 0
BBX 8 19 0 0
BITMAP
00180000
007DA000
01D19800
08600B60
2C0001D5
54000021
00000000
006B5000
04E7C000
0B71E000
0F207000
3D000000
5A000000
68000000
77000091
680001F1
3B0007B0
0C604D30
03DEB200
ENDCHAR
STARTCHAR Cdotaccent
ENCODING 266
SWIDTH 487 0
DWIDTH 10 0
BBX 10 19 0 -1
BITMAP
0000110000
0000E50000
0000100000
0000582000
0008C8D000
004C104100
00B4000000
02D0000000
0780000000
0B40000000
0E00000000
3C00000000
59000000A2
78000005E0
7800001E40
6A0001C700
1E304D6000
05EFB30000
0001000000
ENDCHAR
STARTCHAR cdotaccent
ENCODING 267
SWIDTH 390 0
DWIDTH 8 0
BBX 8 14 0 0
BITMAP
00240000
00550000
006B5000
05E7C000
0C71E000
1F107000
4D000000
6A000000
78000000
870000A1
770002F0
4A0007B0
0D504D30
03DEB200
ENDCHAR
STARTCHAR Ccaron
ENCODING 268
SWIDTH 487 0
DWIDTH 10 0
BBX 10 20 0 -1
BITMAP
03A0000820
007701B500
000B6B3000
0001920000
0000582000
0008C8D000
004C104100
00B4000000
02D0000000
0780000000
0B40000000
0E00000000
3C00000000
59000000A2
78000005E0
7800001E40
6A0001C700
1E304D6000
05EFB30000
0001000000
ENDCHAR
STARTCHAR ccaron
ENCODING 269
SWIDTH 390 0
DWIDTH 8 0
BBX 8 16 0 0
BITMAP
3A000082
07701B50
00B6B300
00192000
006B5000
04E7C000
0B71E000
0F207000
3D000000
5A000000
68000000
77000091
680001F1
3B0007B0
0C604D30
03DEB200
ENDCHAR
STARTCHAR Dcaron
ENCODING 270
SWIDTH 554 0
DWIDTH 11 0
BBX 11 19 0 0
BITMAP
004900019100
0008601B5000
0000B6B20000
000029100000
008000000000
02FBBA851000
3EF63459D800
44F200001C50
00F200000590
00D200000670
00C300000B20
00B300005B00
00A40001D300
0094000B8000
0085009C0000
007608D10000
00666E300000
0027E3000000
000B30000000
ENDCHAR
STARTCHAR Emacron
ENCODING 274
SWIDTH 474 0
DWIDTH 10 0
BBX 10 17 0 0
BITMAP
14579BCA00
3987654200
0200015600
4E039E9200
1FBE920000
0E92000000
0D20000000
0B30002200
0A4017C100
0A56D70000
09E9100000
09B0000000
09A00007D1
09A002BA10
09A06D5000
09ED910000
06A3000000
ENDCHAR
STARTCHAR emacron
ENCODING 275
SWIDTH 461 0
DWIDTH 9 0
BBX 10 15 -1 0
BITMAP
003468ACC2
0089765431
0000000000
0000000000
0000486000
0005F9BB00
001E605F10
007C17D400
00DDD91000
07FB200002
1CF200009A
00E10005E2
00D0003E50
00A406D400
003DE92000
ENDCHAR
STARTCHAR Ebreve
ENCODING 276
SWIDTH 474 0
DWIDTH 10 0
BBX 10 19 0 0
BITMAP
0042008300
004D48E100
0006ED3000
0000000000
0200015600
4E039E9200
1FBE920000
0E92000000
0D20000000
0B30002200
0A4017C100
0A56D70000
09E9100000
09B0000000
09A00007D1
09A002BA10
09A06D5000
09ED910000
06A3000000
ENDCHAR
STARTCHAR ebreve
ENCODING 277
SWIDTH 461 0
DWIDTH 9 0
BBX 10 15 -1 0
BITMAP
0004200730
0004D48E10
00005ED300
0000000000
0000486000
0005F9BB00
001E605F10
007C17D400
00DDD91000
07FB200002
1CF200009A
00E10005E2
00D0003E50
00A406D400
003DE92000
ENDCHAR
STARTCHAR Edotaccent
ENCODING 278
SWIDTH 474 0
DWIDTH 10 0
BBX 10 17 0 0
BITMAP
0001100000
000A900000
0200015600
4E039E9200
1FBE920000
0E92000000
0D20000000
0B30002200
0A4017C100
0A56D70000
09E9100000
09B0000000
09A00007D1
09A002BA10
09A06D5000
09ED910000
06A3000000
ENDCHAR
STARTCHAR edotaccent
ENCODING 279
SWIDTH 461 0
DWIDTH 9 0
BBX 10 13 -1 0
BITMAP
0000021000
00000E4000
0000496000
0005F9BB00
001E605F10
007C17D400
00DDD91000
07FB200002
1CF200009A
00E10005E2
00D0003E50
00A406D400
003DE92000
ENDCHAR
STARTCHAR Eogonek
ENCODING 280
SWIDTH 474 0
DWIDTH 10 0
BBX 10 17 0 -2
BITMAP
0200015600
4E039E9200
1FBE920000
0E92000000
0D20000000
0B30002200
0A4017C100
0A56D70000
09E9100000
09B0000000
09A00007D1
09A002BA10
09A06E6000
09EDF80000
06A3D30000
0000B84990
00003CEA30
ENDCHAR
STARTCHAR eogonek
ENCODING 281
SWIDTH 461 0
DWIDTH 9 0
BBX 10 15 -1 -4
BITMAP
0000486000
0005F9BB00
001E605F10
007C17D400
00DDD91000
07FB200002
1CF200009A
00E10005E2
00D0003E50
00A406D400
003DFD2000
0002E20000
0006A00000
0004C25A20
0000AFE900
ENDCHAR
STARTCHAR Ecaron
ENCODING 282
SWIDTH 474 0
DWIDTH 10 0
BBX 10 18 0 0
BITMAP
0A30004700
01C105A100
004B780000
0206615600
4E039E9200
1FBE920000
0E92000000
0D20000000
0B30002200
0A4017C100
0A56D70000
09E9100000
09B0000000
09A00007D1
09A002BA10
09A06D5000
09ED910000
06A3000000
ENDCHAR
STARTCHAR ecaron
ENCODING 283
SWIDTH 461 0
DWIDTH 9 0
BBX 10 16 -1 0
BITMAP
0075000280
000B303B20
0002C6A100
0000480000
0000000000
0000486000
0005F9BB00
001E605F10
007C17D400
00DDD91000
07FB200002
1CF200009A
00E10005E2
00D0003E50
00A406D400
003DE92000
ENDCHAR
STARTCHAR Gcircumflex
ENCODING 284
SWIDTH 591 0
DWIDTH 12 0
BBX 12 22 0 -3
BITMAP
000018000000
00008D900000
0002D1970000
0009600C5000
002C0002D400
006300002100
000005CE3000
00007C610000
0005C0000000
001D20000000
009700000000
02D00016ADE4
096000688F70
0D1000006F20
4B000002EF00
7800001CDE00
880002CB3D00
4FA8AE803E00
049B93003E00
000000003F10
000000000E20
000000000100
ENDCHAR
STARTCHAR gcircumflex
ENCODING 285
SWIDTH 437 0
DWIDTH 9 0
BBX 9 28 0 -9
BITMAP
0005400000
001DD20000
00963C1000
02C005C000
0A40008B00
0800000300
0000000000
0000000000
00019EC200
001C86F600
009708F700
04C01DB900
0B4079AA00
2D00D39B00
7807B08C00
A51E407D00
8BC9006F00
2CA0005F00
0000005F10
0000006F00
0000006E00
0000007B00
000000A700
000000E200
000006B000
00004E3000
027BF60000
0157300000
ENDCHAR
STARTCHAR Gbreve
ENCODING 286
SWIDTH 591 0
DWIDTH 12 0
BBX 12 20 0 -3
BITMAP
000060019000
0000994CA000
00000AFA1000
000000000000
000005CE3000
00007C610000
0005C0000000
001D20000000
009700000000
02D00016ADE4
096000688F70
0D1000006F20
4B000002EF00
7800001CDE00
880002CB3D00
4FA8AE803E00
049B93003E00
000000003F10
000000000E20
000000000100
ENDCHAR
STARTCHAR gbreve
ENCODING 287
SWIDTH 437 0
DWIDTH 9 0
BBX 9 25 0 -9
BITMAP
005100A000
007B4AC000
0009FB1000
0000000000
0000000000
00019EC200
001C86F600
009708F700
04C01DB900
0B4079AA00
2D00D39B00
7807B08C00
A51E407D00
8BC9006F00
2CA0005F00
0000005F10
0000006F00
0000006E00
0000007B00
000000A700
000000E200
000006B000
00004E3000
027BF60000
0157300000
ENDCHAR
STARTCHAR Gdotaccent
ENCODING 288
SWIDTH 591 0
DWIDTH 12 0
BBX 12 20 0 -3
BITMAP
000000200000
000007C00000
000000000000
000000000000
000002AE8000
00002D820000
0001D3000000
000970000000
004C00000000
00B400049CE9
03C000388CC0
096000001E80
0D100000AF60
2D000007FE40
3E00009E3C40
1DC88DC20C40
018BA5000D50
000000000C60
000000000970
000000000100
ENDCHAR
STARTCHAR gdotaccent
ENCODING 289
SWIDTH 437 0
DWIDTH 9 0
BBX 9 23 0 -9
BITMAP
0000020000
00003E1000
0000010000
00019EC200
001C86F600
009708F700
04C01DB900
0B4079AA00
2D00D39B00
7807B08C00
A51E407D00
8BC9006F00
2CA0005F00
0000005F10
0000006F00
0000006E00
0000007B00
000000A700
000000E200
000006B000
00004E3000
027BF60000
0157300000
ENDCHAR
STARTCHAR Gcommaaccent
ENCODING 290
SWIDTH 591 0
DWIDTH 12 0
BBX 12 20 0 -7
BITMAP
000005CE3000
00007C610000
0005C0000000
001D20000000
009700000000
02D00016ADE4
096000688F70
0D1000006F20
4B000002EF00
7800001CDE00
880002CB3D00
4FA8AE803E00
049B93003E00
000000003F10
000000000E20
00000C600100
00000C800000
00000B500000
00000C200000
000004000000
ENDCHAR
STARTCHAR Hcircumflex
ENCODING 292
SWIDTH 424 0
DWIDTH 9 0
BBX 8 21 0 0
BITMAP
00181000
007DA000
01D18800
08700B60
2C0001D5
54000021
00000000
11000120
690005B0
5A0002D0
5A0000E0
4B0000E1
4B0001F2
3C0008F4
3D02ABB5
2FBD5086
2F910068
1E000059
1D00004B
0E00003C
0D00001A
ENDCHAR
STARTCHAR hcircumflex
ENCODING 293
SWIDTH 466 0
DWIDTH 9 0
BBX 10 20 0 -1
BITMAP
0000072000
00004DC100
0000C35B00
0005A00890
360C2000B8
5A36000012
5B00000000
5B00000000
5B00000000
5C0018BA20
5C01CF8B90
5C08F507A0
5D1E9006B0
5D5E1006B0
5DA80006C0
5EE10005C0
5F900005C0
5F200004D0
36000004D0
0000000010
ENDCHAR
STARTCHAR Hbar
ENCODING 294
SWIDTH 424 0
DWIDTH 9 0
BBX 8 14 0 0
BITMAP
11000120
690005B0
6A0002D0
5A0001E1
7DACEFF7
6C3211F2
4C0008F4
3E02ABB5
2FBD5086
2F910068
1E000059
1D00004B
0E00003C
0D00001A
ENDCHAR
STARTCHAR hbar
ENCODING 295
SWIDTH 466 0
DWIDTH 9 0
BBX 11 16 -2 -1
BITMAP
003600000000
005A00000000
005B00000000
005B00000000
048D9BCC0000
19BD655ABA20
005C01CF8B90
005C08F507A0
005D1E9006B0
005D5E1006B0
005EA80006C0
005EE10005C0
005F900005C0
005F200004D0
0036000004D0
000000000010
ENDCHAR
STARTCHAR Itilde
ENCODING 296
SWIDTH 153 0
DWIDTH 3 0
BBX 8 20 -2 0
BITMAP
02410000
7DCD01C5
E30D7AD1
3003DB20
00000000
000C1000
000C3000
000B4000
000A5000
000A5000
00096000
00096000
00097000
00097000
00087000
00087000
00087000
00087000
00077000
00056000
ENDCHAR
STARTCHAR itilde
ENCODING 297
SWIDTH 132 0
DWIDTH 3 0
BBX 9 17 -3 -1
BITMAP
04AA300500
2E59C08E10
4801DBE400
0000272000
0001400000
0004C00000
0005C00000
0005C00000
0005C00000
0005C00000
0005C00000
0004C00000
0004C00000
0003C00000
0003C00000
0002C00000
0000100000
ENDCHAR
STARTCHAR imacron
ENCODING 299
SWIDTH 132 0
DWIDTH 3 0
BBX 8 16 -3 -1
BITMAP
03579ACB
29876543
00000000
00014000
0004C000
0005C000
0005C000
0005C000
0005C000
0005C000
0004C000
0004C000
0003C000
0003C000
0002C000
00001000
ENDCHAR
STARTCHAR Ibreve
ENCODING 300
SWIDTH 153 0
DWIDTH 3 0
BBX 6 20 -1 0
BITMAP
510092
6C49D0
07FC20
000000
000000
00C100
00C300
00B400
00A500
00A500
009600
009600
009700
009700
008700
008700
008700
008700
007700
005600
ENDCHAR
STARTCHAR ibreve
ENCODING 301
SWIDTH 132 0
DWIDTH 3 0
BBX 5 17 -1 -1
BITMAP
5001A0
8A4BB0
09FB10
000000
014000
04C000
05C000
05C000
05C000
05C000
05C000
04C000
04C000
03C000
03C000
02C000
001000
ENDCHAR
STARTCHAR Iogonek
ENCODING 302
SWIDTH 153 0
DWIDTH 3 0
BBX 5 19 0 -4
BITMAP
0C1000
0C3000
0B4000
0A5000
0A5000
096000
096000
097000
097000
087000
087000
087000
087000
078000
2D7000
990000
C40000
A949A0
2BDB30
ENDCHAR
STARTCHAR iogonek
ENCODING 303
SWIDTH 132 0
DWIDTH 3 0
BBX 6 20 -1 -5
BITMAP
064000
022000
000000
014000
04C000
05C000
05C000
05C000
05C000
05C000
04C000
04C000
03C000
03C000
04D000
1D6000
6B0000
790020
3E9CE1
048720
ENDCHAR
STARTCHAR Idotaccent
ENCODING 304
SWIDTH 153 0
DWIDTH 3 0
BBX 3 19 0 0
BITMAP
0200
1F30
0100
0000
2B00
0E00
0E00
0E10
0D20
0D30
0C30
0C30
0C30
0C40
0B40
0B40
0B40
0A40
0830
ENDCHAR
STARTCHAR dotlessi
ENCODING 305
SWIDTH 132 0
DWIDTH 3 0
BBX 2 13 0 -1
BITMAP
14
4C
5C
5C
5C
5C
5C
4C
4C
3C
3C
2C
01
ENDCHAR
STARTCHAR Jcircumflex
ENCODING 308
SWIDTH 371 0
DWIDTH 7 0
BBX 9 22 0 -2
BITMAP
0001800000
0008DA0000
001D198000
009600C500
02C0001D40
0540120210
0000490000
00003B0000
00002D0000
00001F1000
00000E3000
00000C5000
00000A7000
0000088000
000007A000
000005B000
000004B000
700004C000
840004B000
1C20068000
02B88C1000
0003300000
ENDCHAR
STARTCHAR jcircumflex
ENCODING 309
SWIDTH 112 0
DWIDTH 2 0
BBX 9 26 -4 -7
BITMAP
0000820000
0005DC1000
000C36A000
0069009900
00D1000C70
0360000110
0000000000
0000000000
0000120000
0000690000
0000790000
0000790000
0000690000
00006A0000
00005B0000
00004C0000
00003D0000
00002E0000
00001F0000
00000F1000
00000E1000
00000E1000
10001E0000
5A006A0000
07B5D50000
0039800000
ENDCHAR
STARTCHAR Kcommaaccent
ENCODING 310
SWIDTH 524 0
DWIDTH 10 0
BBX 11 21 0 -7
BITMAP
240000000000
5B0000170000
1D0001D40000
0E0009A00000
0D105D100000
0C31D4000000
0A5880000000
099D10000000
08F600000000
06F100000000
05FDBAA99930
03D444444400
01E000000000
00A000000000
000000000000
000001000000
00008B000000
00007D000000
00006A000000
000077000000
000031000000
ENDCHAR
STARTCHAR kcommaaccent
ENCODING 311
SWIDTH 428 0
DWIDTH 9 0
BBX 9 23 0 -7
BITMAP
0300000000
0E20000000
0F30000000
0F30000000
1F30001A10
1F2000BC00
2F1006F400
2F001EA000
3E00BE1000
3E07F40000
4E4F700000
5FE6000000
5FB0000000
6DCD610000
6A039EC900
7800016900
5300000000
0000100000
0007C00000
0007D00000
0006B00000
0006700000
0003100000
ENDCHAR
STARTCHAR Lacute
ENCODING 313
SWIDTH 537 0
DWIDTH 11 0
BBX 11 15 0 0
BITMAP
000000500000
000009C00000
26005D200000
6E0011000000
5F0000000000
4F0000000000
4F1000000000
3F2000000000
3F2000000000
2F3000000000
2F3000000540
1F400016DB40
1F4017E92000
1F89EA200000
0ED920000000
ENDCHAR
STARTCHAR lacute
ENCODING 314
SWIDTH 137 0
DWIDTH 3 0
BBX 3 23 0 0
BITMAP
0230
2E60
B900
2000
0000
0000
7600
6800
4900
3A00
1B00
1C00
0D00
0D00
0D00
0D00
0D00
0D10
0D10
0D20
0E20
0F30
0810
ENDCHAR
STARTCHAR Lcommaaccent
ENCODING 315
SWIDTH 537 0
DWIDTH 11 0
BBX 11 20 0 -7
BITMAP
260000000000
6E0000000000
5F0000000000
4F0000000000
4F1000000000
3F2000000000
3F2000000000
2F3000000000
2F3000000540
1F400016DB40
1F4017E92000
1F89EA200000
0ED920000000
000000000000
000001000000
00006D000000
00005F000000
00004C000000
000059000000
000022000000
ENDCHAR
STARTCHAR lcommaaccent
ENCODING 316
SWIDTH 137 0
DWIDTH 3 0
BBX 3 24 0 -7
BITMAP
7600
6800
4900
3A00
1B00
1C00
0D00
0D00
0D00
0D00
0D00
0D10
0D10
0D20
0E20
0F30
0810
0000
0100
5D00
5F00
4D00
4900
2200
ENDCHAR
STARTCHAR Lcaron
ENCODING 317
SWIDTH 537 0
DWIDTH 11 0
BBX 11 18 0 0
BITMAP
0A3000470000
01C105A10000
004B78000000
000660000000
000000000000
260000000000
6E0000000000
5F0000000000
4F0000000000
4F1000000000
3F2000000000
3F2000000000
2F3000000000
2F3000000540
1F400016DB40
1F4017E92000
1F89EA200000
0ED920000000
ENDCHAR
STARTCHAR Ldot
ENCODING 319
SWIDTH 537 0
DWIDTH 11 0
BBX 11 13 0 0
BITMAP
260000000000
6E0000000000
5F0000000000
4F0000000000
4F1000000000
3F2000000000
3F2000000000
2F3029100000
2F3028000540
1F400016DB40
1F4017E92000
1F89EA200000
0ED920000000
ENDCHAR
STARTCHAR ldot
ENCODING 320
SWIDTH 267 0
DWIDTH 5 0
BBX 5 17 0 0
BITMAP
760000
680000
490000
3A0000
1B0000
1C0000
0D0000
0D0000
0D0000
0D0000
0D0000
0D1660
0D1640
0D2000
0E2000
0F3000
081000
ENDCHAR
STARTCHAR Lslash
ENCODING 321
SWIDTH 537 0
DWIDTH 11 0
BBX 12 13 -1 0
BITMAP
026000000000
06E000000000
05F000000000
04F000000000
04F100000000
03F100000000
03F216B60000
02FBFD820000
7EF820000054
01F300016DB4
01F4017E9200
01F89EA20000
00ED92000000
ENDCHAR
STARTCHAR lslash
ENCODING 322
SWIDTH 137 0
DWIDTH 3 0
BBX 8 17 -3 0
BITMAP
00076000
00068000
00049000
0003A000
0001B000
0001C000
0000D000
0000D000
0000D000
0000D000
0000D157
0002EEEA
19CDE500
1430D200
0000E200
0000F300
00008100
ENDCHAR
STARTCHAR Nacute
ENCODING 323
SWIDTH 541 0
DWIDTH 11 0
BBX 11 17 0 0
BITMAP
000014000000
0000BA003000
0007C102E100
00011000E400
58000000C500
5F800000B600
3FF50000A600
2F7E20009600
0F28C0008700
0D20B8008700
0B401D408800
0A6003D28800
0880006C9800
06A00009F900
05B00000CD00
03C000006E10
02B000000000
ENDCHAR
STARTCHAR nacute
ENCODING 324
SWIDTH 483 0
DWIDTH 10 0
BBX 9 16 0 0
BITMAP
0000050000
00008D0000
0003E30000
0000100000
2300039300
69005FED00
5B01E80B40
4D07E00870
3F0B7007A0
2F2E2006C0
1F6C0005C0
0FC80004D0
0EF40003D0
0DF10002E0
0CC00001E0
0A80000060
ENDCHAR
STARTCHAR Ncommaaccent
ENCODING 325
SWIDTH 541 0
DWIDTH 11 0
BBX 11 23 0 -7
BITMAP
000000003000
00000002E100
00000000E400
58000000C500
5F800000B600
3FF50000A600
2F7E20009600
0F28C0008700
0D20B8008700
0B401D408800
0A6003D28800
0880006C9800
06A00009F900
05B00000CD00
03C000006E10
02B000000000
000000000000
000001000000
00005D000000
00005F000000
00004D000000
000049000000
000022000000
ENDCHAR
STARTCHAR ncommaaccent
ENCODING 326
SWIDTH 483 0
DWIDTH 10 0
BBX 9 19 0 -7
BITMAP
2300039300
69005FED00
5B01E80B40
4D07E00870
3F0B7007A0
2F2E2006C0
1F6C0005C0
0FC80004D0
0EF40003D0
0DF10002E0
0CC00001E0
0A80000060
0000000000
0000100000
0000E50000
0000D60000
0000D40000
0000D10000
0000400000
ENDCHAR
STARTCHAR Ncaron
ENCODING 327
SWIDTH 541 0
DWIDTH 11 0
BBX 11 18 0 0
BITMAP
01B100074000
004B00880000
000799603000
00008302E100
00000000E400
58000000C500
5F800000B600
3FF50000A600
2F7E20009600
0F28C0008700
0D20B8008700
0B401D408800
0A6003D28800
0880006C9800
06A00009F900
05B00000CD00
03C000006E10
02B000000000
ENDCHAR
STARTCHAR ncaron
ENCODING 328
SWIDTH 483 0
DWIDTH 10 0
BBX 9 16 0 0
BITMAP
0490001910
009601B400
000C6B2000
0002910000
2300039300
69005FED00
5B01E80B40
4D07E00870
3F0B7007A0
2F2E2006C0
1F6C0005C0
0FC80004D0
0EF40003D0
0DF10002E0
0CC00001E0
0A80000060
ENDCHAR
STARTCHAR napostrophe
ENCODING 329
SWIDTH 483 0
DWIDTH 10 0
BBX 9 18 0 0
BITMAP
0001000000
008B000000
007C000000
007A000000
0077000000
0031000000
2300039300
69005FED00
5B01E80B40
4D07E00870
3F0B7007A0
2F2E2006C0
1F6C0005C0
0FC80004D0
0EF40003D0
0DF10002E0
0CC00001E0
0A80000060
ENDCHAR
STARTCHAR Omacron
ENCODING 332
SWIDTH 382 0
DWIDTH 8 0
BBX 9 16 0 0
BITMAP
02468ABC50
0798754310
0002630000
004EEF5000
01D605E000
06A000E200
0C6000C500
1F1000B500
4C0000C500
790000E300
970001F100
A50006C000
A6000B8000
79004E1000
2E76E50000
06EC400000
ENDCHAR
STARTCHAR omacron
ENCODING 333
SWIDTH 266 0
DWIDTH 5 0
BBX 8 15 -1 0
BITMAP
2468ABC3
89865431
00000000
00000000
007F7000
00D8B400
02C02B00
05900D00
07800F00
09701F00
09703D00
09706B00
0870B500
07B8C000
02EB2000
ENDCHAR
STARTCHAR Obreve
ENCODING 334
SWIDTH 382 0
DWIDTH 8 0
BBX 8 17 0 0
BITMAP
03300740
03D47E20
005ED400
00026300
004EEF50
01D605E0
06A000E2
0C6000C5
1F1000B5
4C0000C5
790000E3
970001F1
A50006C0
A6000B80
79004E10
2E76E500
06EC4000
ENDCHAR
STARTCHAR obreve
ENCODING 335
SWIDTH 266 0
DWIDTH 5 0
BBX 6 15 0 0
BITMAP
330074
3D47E2
05ED40
000000
07F700
0D8B40
2C02B0
5900D0
7800F0
9701F0
9703D0
9706B0
870B50
7B8C00
2EB200
ENDCHAR
STARTCHAR Ohungarumlaut
ENCODING 336
SWIDTH 382 0
DWIDTH 8 0
BBX 8 18 0 0
BITMAP
00000200
00007C39
0004E5E6
00022560
00026300
004EEF50
01D605E0
06A000E2
0C6000C5
1F1000B5
4C0000C5
790000E3
970001F1
A50006C0
A6000B80
79004E10
2E76E500
06EC4000
ENDCHAR
STARTCHAR ohungarumlaut
ENCODING 337
SWIDTH 266 0
DWIDTH 5 0
BBX 6 16 0 0
BITMAP
002000
04E3B1
1E7CB0
042910
000000
07F700
0D8B40
2C02B0
5900D0
7800F0
9701F0
9703D0
9706B0
870B50
7B8C00
2EB200
ENDCHAR
STARTCHAR OE
ENCODING 338
SWIDTH 732 0
DWIDTH 15 0
BBX 15 15 0 0
BITMAP
0000000000013000
000264C104AD6000
004EEFF8CD600000
01D605FD60000000
06A000E500000000
0C6000C500001000
1F1000B6002B5000
4C0000C718C40000
790000ECD6000000
970001FE10000000
A50006FC00002920
A6000BDC0006D600
79004E8C01AB2000
2E76E56D8D600000
06EC406E91000000
ENDCHAR
STARTCHAR oe
ENCODING 339
SWIDTH 628 0
DWIDTH 13 0
BBX 13 11 0 0
BITMAP
07F70008B81000
0D8B40BC5AB000
2C02B4E20AC000
5900DB84C91000
7800FFFC300000
9701FF60000330
9703FE00001D60
9706CD0000AB00
870B6D0008C100
7B8D0B64BA1000
2EB102AB400000
ENDCHAR
STARTCHAR Racute
ENCODING 340
SWIDTH 503 0
DWIDTH 10 0
BBX 10 19 0 0
BITMAP
0000005000
000008D000
00004E3000
3C10155200
3F28EDBEC2
3FE71000D8
3F300004D1
3F00007B20
3D003B7000
3C2AB20000
3FE6000000
3F70000000
3EFC400000
3B28EB4000
3B0018EB40
3B000017EB
3B00000013
3B00000000
2800000000
ENDCHAR
STARTCHAR racute
ENCODING 341
SWIDTH 396 0
DWIDTH 8 0
BBX 8 15 0 0
BITMAP
00002300
0002D600
000B9000
00020000
00000220
6702CFF5
5A0CA200
3C3F1000
1E6B0000
0D890000
0BA80000
09E70000
06F60000
04F40000
01D20000
ENDCHAR
STARTCHAR Rcommaaccent
ENCODING 342
SWIDTH 503 0
DWIDTH 10 0
BBX 10 23 0 -7
BITMAP
3C10045200
3F28EDBEC2
3FE71000D8
3F300004D1
3F00007B20
3D003B7000
3C2AB20000
3FE6000000
3F70000000
3EFC400000
3B28EB4000
3B0018EB40
3B000017EB
3B00000013
3B00000000
2800000000
0000000000
0000000000
0000B80000
0000AA0000
0000970000
0000A40000
0000400000
ENDCHAR
STARTCHAR rcommaaccent
ENCODING 343
SWIDTH 396 0
DWIDTH 8 0
BBX 8 18 0 -7
BITMAP
00000220
6702CFF5
5A0CA200
3C3F1000
1E6B0000
0D890000
0BA80000
09E70000
06F60000
04F40000
01D20000
00000000
00000000
000B8000
000B9000
000A7000
000A3000
00040000
ENDCHAR
STARTCHAR Rcaron
ENCODING 344
SWIDTH 503 0
DWIDTH 10 0
BBX 10 20 0 0
BITMAP
00A3000470
001C105A10
0004B78000
0000660000
3C10045200
3F28EDBEC2
3FE71000D8
3F300004D1
3F00007B20
3D003B7000
3C2AB20000
3FE6000000
3F70000000
3EFC400000
3B28EB4000
3B0018EB40
3B000017EB
3B00000013
3B00000000
2800000000
ENDCHAR
STARTCHAR rcaron
ENCODING 345
SWIDTH 396 0
DWIDTH 8 0
BBX 8 16 0 0
BITMAP
2A000082
06801A60
00A7A400
00192000
00000000
00000220
6702CFF5
5A0CA200
3C3F1000
1E6B0000
0D890000
0BA80000
09E70000
06F60000
04F40000
01D20000
ENDCHAR
STARTCHAR Sacute
ENCODING 346
SWIDTH 541 0
DWIDTH 11 0
BBX 11 18 0 0
BITMAP
000000400000
00000BB00000
00006C100000
000013681000
0002AABE2000
004C30000000
04D200000000
1D3000000000
890000000000
B50000000000
970000000000
1C9410000000
0048BCCB9400
000000025E30
000000006E20
0000027DA200
0028CE820000
005730000000
ENDCHAR
STARTCHAR sacute
ENCODING 347
SWIDTH 366 0
DWIDTH 7 0
BBX 7 16 0 -1
BITMAP
00004100
0005F200
001E5000
00020000
00000100
002BEE00
04D30100
1D400000
6B000000
78005830
5ECECCE0
055102E0
00002D70
0004E900
008F7000
00630000
ENDCHAR
STARTCHAR Scircumflex
ENCODING 348
SWIDTH 541 0
DWIDTH 11 0
BBX 11 21 0 0
BITMAP
000018000000
00008D900000
0002D1A70000
000A501C5000
003B0002D400
006300002000
000002681000
0002AABE2000
004C30000000
04D200000000
1D3000000000
890000000000
B50000000000
970000000000
1C9410000000
0048BCCB9400
000000025E30
000000006E20
0000027DA200
0028CE820000
005730000000
ENDCHAR
STARTCHAR scircumflex
ENCODING 349
SWIDTH 366 0
DWIDTH 7 0
BBX 8 17 0 -1
BITMAP
00180000
007DA000
01D19800
08600B60
2C0001D5
54000121
002BEE00
04D30100
1D400000
6B000000
78005830
5ECECCE0
055102E0
00002D70
0004E900
008F7000
00630000
ENDCHAR
STARTCHAR Scedilla
ENCODING 350
SWIDTH 541 0
DWIDTH 11 0
BBX 11 20 0 -5
BITMAP
000002681000
0002AABE2000
004C30000000
04D200000000
1D3000000000
890000000000
B50000000000
970000000000
1C9410000000
0048BCCB9400
000000025E30
000000006E20
0000027DA200
0028CED70000
005730870000
0000008D4000
0000002CFA10
000000003DB0
000000015CE0
0000006FDA40
ENDCHAR
STARTCHAR scedilla
ENCODING 351
SWIDTH 366 0
DWIDTH 7 0
BBX 8 18 0 -7
BITMAP
00000100
002BEE00
04D30100
1D400000
6B000000
78005830
5ECECCE0
055102E0
00002D70
0004E900
008F7000
007D0000
002E4000
000CFA20
00003BE2
000006F6
001BEFA1
00032000
ENDCHAR
STARTCHAR Scaron
ENCODING 352
SWIDTH 541 0
DWIDTH 11 0
BBX 11 18 0 0
BITMAP
00A300046000
001C105A1000
0004B7800000
000068681000
0002AABE2000
004C30000000
04D200000000
1D3000000000
890000000000
B50000000000
970000000000
1C9410000000
0048BCCB9400
000000025E30
000000006E20
0000027DA200
0028CE820000
005730000000
ENDCHAR
STARTCHAR scaron
ENCODING 353
SWIDTH 366 0
DWIDTH 7 0
BBX 7 16 0 -1
BITMAP
66000290
0A402B30
01C6A100
00380000
00000100
002BEE00
04D30100
1D400000
6B000000
78005830
5ECECCE0
055102E0
00002D70
0004E900
008F7000
00630000
ENDCHAR
STARTCHAR Tcommaaccent
ENCODING 354
SWIDTH 595 0
DWIDTH 12 0
BBX 14 22 0 -7
BITMAP
00000020000001
000013EA9ACDD7
49BEECEB653100
575200A8000000
00000088000000
00000069000000
0000005A000000
0000003C000000
0000002E000000
0000001F100000
0000000E300000
0000000D500000
0000000B600000
00000008800000
00000005900000
00000000000000
00000000100000
00000001F30000
00000001F40000
00000000F20000
00000000D00000
00000000400000
ENDCHAR
STARTCHAR tcommaaccent
ENCODING 355
SWIDTH 268 0
DWIDTH 5 0
BBX 7 23 -1 -7
BITMAP
00210000
00B60000
00B50000
00B40000
00C30110
00C9BF60
29FE9200
AEF30000
11E40000
00D40000
00C50000
00B50000
00A60000
00970000
00970000
00880000
00230000
00010000
001E3000
000E5000
000E3000
000E0000
00040000
ENDCHAR
STARTCHAR Tcaron
ENCODING 356
SWIDTH 595 0
DWIDTH 12 0
BBX 14 20 0 0
BITMAP
00006600029000
00000B403B3000
000001C6A10000
00000048000000
00000000000000
00000020000001
000013EA9ACDD7
49BEECEB653100
575200A8000000
00000088000000
00000069000000
0000005A000000
0000003C000000
0000002E000000
0000001F100000
0000000E300000
0000000D500000
0000000B600000
00000008800000
00000005900000
ENDCHAR
STARTCHAR Tbar
ENCODING 358
SWIDTH 595 0
DWIDTH 12 0
BBX 14 15 0 0
BITMAP
00000020000001
000013EA9ACDD7
49BEECEB653100
575200A8000000
00000088000000
000367BEDE5000
0005768C320000
0000003C000000
0000002E000000
0000001F100000
0000000E300000
0000000D500000
0000000B600000
00000008800000
00000005900000
ENDCHAR
STARTCHAR Utilde
ENCODING 360
SWIDTH 450 0
DWIDTH 9 0
BBX 9 21 0 -3
BITMAP
0024100000
06DBE10B70
0D40C89E20
03002CC200
0000000000
0000000400
4A00000D50
6D00001F50
5D00003F50
5D00005F40
4D00008F30
4D0000BF20
3D0000EF20
3D0003DC20
2D00088B30
0E001D1950
0BA4B50860
02AB500680
0000000590
0000000390
0000000110
ENDCHAR
STARTCHAR utilde
ENCODING 361
SWIDTH 387 0
DWIDTH 8 0
BBX 8 16 0 -1
BITMAP
01410000
6DBE10B7
D40C99E2
3002CC30
00000000
36000540
5A000970
4B000A70
4C000A70
4C000B60
3D000E60
2E005F70
0E10DE90
0B5AD5B0
04FD22F1
00100040
ENDCHAR
STARTCHAR Umacron
ENCODING 362
SWIDTH 450 0
DWIDTH 9 0
BBX 9 18 0 -3
BITMAP
03568ACC10
1987654300
0000000400
4A00000D50
6D00001F50
5D00003F50
5D00005F40
4D00008F30
4D0000BF20
3D0000EF20
3D0003DC20
2D00088B30
0E001D1950
0BA4B50860
02AB500680
0000000590
0000000390
0000000110
ENDCHAR
STARTCHAR umacron
ENCODING 363
SWIDTH 387 0
DWIDTH 8 0
BBX 8 16 0 -1
BITMAP
24689BC6
69876431
00000000
00000000
00000000
36000540
5A000970
4B000A70
4C000A70
4C000B60
3D000E60
2E005F70
0E10DE90
0B5AD5B0
04FD22F1
00100040
ENDCHAR
STARTCHAR Ubreve
ENCODING 364
SWIDTH 450 0
DWIDTH 9 0
BBX 9 18 0 -3
BITMAP
0051009100
006C49D000
0007FC2400
4A00000D50
6D00001F50
5D00003F50
5D00005F40
4D00008F30
4D0000BF20
3D0000EF20
3D0003DC20
2D00088B30
0E001D1950
0BA4B50860
02AB500680
0000000590
0000000390
0000000110
ENDCHAR
STARTCHAR ubreve
ENCODING 365
SWIDTH 387 0
DWIDTH 8 0
BBX 8 16 0 -1
BITMAP
02400460
01D65E40
003DE600
00000000
00000000
36000540
5A000970
4B000A70
4C000A70
4C000B60
3D000E60
2E005F70
0E10DE90
0B5AD5B0
04FD22F1
00100040
ENDCHAR
STARTCHAR Uring
ENCODING 366
SWIDTH 450 0
DWIDTH 9 0
BBX 9 20 0 -3
BITMAP
0004750000
00BB7C7000
00D407A000
006CBB3000
0000000400
4A00000D50
6D00001F50
5D00003F50
5D00005F40
4D00008F30
4D0000BF20
3D0000EF20
3D0003DC20
2D00088B30
0E001D1950
0BA4B50860
02AB500680
0000000590
0000000390
0000000110
ENDCHAR
STARTCHAR uring
ENCODING 367
SWIDTH 387 0
DWIDTH 8 0
BBX 8 15 0 -1
BITMAP
00267200
03E88E10
05B01E30
01BBB800
36000540
5A000970
4B000A70
4C000A70
4C000B60
3D000E60
2E005F70
0E10DE90
0B5AD5B0
04FD22F1
00100040
ENDCHAR
STARTCHAR Uhungarumlaut
ENCODING 368
SWIDTH 450 0
DWIDTH 9 0
BBX 9 20 0 -3
BITMAP
0000200000
0009B49000
005D5E5000
0022660000
0000000400
4A00000D50
6D00001F50
5D00003F50
5D00005F40
4D00008F30
4D0000BF20
3D0000EF20
3D0003DC20
2D00088B30
0E001D1950
0BA4B50860
02AB500680
0000000590
0000000390
0000000110
ENDCHAR
STARTCHAR uhungarumlaut
ENCODING 369
SWIDTH 387 0
DWIDTH 8 0
BBX 8 15 0 -1
BITMAP
00020000
009B4800
06D5E500
02275000
36000540
5A000970
4B000A70
4C000A70
4C000B60
3D000E60
2E005F70
0E10DE90
0B5AD5B0
04FD22F1
00100040
ENDCHAR
STARTCHAR Uogonek
ENCODING 370
SWIDTH 450 0
DWIDTH 9 0
BBX 11 19 0 -6
BITMAP
000000040000
4A00000D5000
6D00001F5000
5D00003F5000
5D00005F4000
4D00008F3000
4D0000BF2000
3D0000EF2000
3D0003DC2000
2D00088B3000
0E001D195000
0BA4B5086000
02AB50068000
0000001B9000
000000BB9000
000002E11000
000003D00210
000000DBCF40
000000176200
ENDCHAR
STARTCHAR uogonek
ENCODING 371
SWIDTH 387 0
DWIDTH 8 0
BBX 9 15 0 -5
BITMAP
3600054000
5A00097000
4B000A7000
4C000A7000
4C000B6000
3D000E6000
2E005F7000
0E10DE9000
0B5AD5B000
04FD26F100
00104E5000
0000B60000
0000D30010
0000AB8DA0
000018A710
ENDCHAR
STARTCHAR Wcircumflex
ENCODING 372
SWIDTH 878 0
DWIDTH 18 0
BBX 17 22 0 -1
BITMAP
000000027000000000
0000000AD800000000
0000003C0B50000000
000000B401D4000000
000004A0003E300000
000007200002000000
000000000000000280
0000000000000006A0
030000002500000A60
8D0000009F10000D20
3F300000CE60002E00
0B700002C9A0006A00
06C0000773E0009600
01F2000B30D400D200
00C6001D008A02E000
008B0068002E15A000
005F10B40009796000
001F61E00002ED3000
000CA6A00000AF0000
0006FC600000290000
0001DE100000000000
000021000000000000
ENDCHAR
STARTCHAR wcircumflex
ENCODING 373
SWIDTH 566 0
DWIDTH 11 0
BBX 11 19 0 0
BITMAP
000036000000
0000BD600000
0005B1C40000
000C202D2000
00690004E100
008100003000
000000000000
000000000000
000012000100
58008D000A40
3E10AE700A60
0C50C6E20A50
06B0E47A0A60
01F2F30D3A70
00AAF204CA70
004FF100AE80
000DF0002F80
0008E0000680
0002B0000000
ENDCHAR
STARTCHAR Ycircumflex
ENCODING 374
SWIDTH 483 0
DWIDTH 10 0
BBX 10 22 0 0
BITMAP
0001800000
0008D90000
002D197000
009600C500
02C0002D40
0630000210
0000000041
00000000B2
00000001D0
7100000590
5B00000A50
0C80001E10
02E5006B00
004E40B600
0006E7E100
00007FA000
00001F5000
00003E0000
0000790000
0000C40000
0001E00000
0003A00000
ENDCHAR
STARTCHAR ycircumflex
ENCODING 375
SWIDTH 363 0
DWIDTH 7 0
BBX 8 27 0 -8
BITMAP
00360000
00BD6000
05B1C400
0C202D20
690004E1
81000030
00000000
00000000
00000040
100001D0
8A0002D0
2F4003C0
07D004C0
00D705C0
004E25B0
0009C7B0
0001EFA0
00005FA0
00000B90
00000880
00000960
00000A50
00000B40
00000C30
00000E20
00000F10
00000700
ENDCHAR
STARTCHAR Ydieresis
ENCODING 376
SWIDTH 483 0
DWIDTH 10 0
BBX 10 16 0 0
BITMAP
0000000041
001D36B0B2
00050231D0
7100000590
5B00000A50
0C80001E10
02E5006B00
004E40B600
0006E7E100
00007FA000
00001F5000
00003E0000
0000790000
0000C40000
0001E00000
0003A00000
ENDCHAR
STARTCHAR Zacute
ENCODING 377
SWIDTH 670 0
DWIDTH 13 0
BBX 13 19 0 0
BITMAP
00000023000000
000002D6000000
00000B90000000
00000200000000
00000000000000
29AA9999999000
143334457ED100
000000006F3000
00000003F60000
0000001D900000
000000BB000000
000008D1000000
00005F30000000
0002E600000000
001D9000000000
00AB0000000000
07D10000000000
3FA77777778990
6FEDCCCBBBA960
ENDCHAR
STARTCHAR zacute
ENCODING 378
SWIDTH 618 0
DWIDTH 12 0
BBX 13 16 0 -1
BITMAP
00000014000000
000001C9000000
000008B1000000
00000100000000
00000000000000
000017CD000000
015AE9CC000000
4EB511E7000000
000007D1000000
00001E50000000
00007B00000000
0000D300000000
0004D000147A60
0009C69DFFDA60
000CEB96310000
00020000000000
ENDCHAR
STARTCHAR Zdotaccent
ENCODING 379
SWIDTH 670 0
DWIDTH 13 0
BBX 13 17 0 0
BITMAP
00000021000000
000000E4000000
00000010000000
29AA9999999000
143334457ED100
000000006F3000
00000003F60000
0000001D900000
000000BB000000
000008D1000000
00005F30000000
0002E600000000
001D9000000000
00AB0000000000
07D10000000000
3FA77777778990
6FEDCCCBBBA960
ENDCHAR
STARTCHAR zdotaccent
ENCODING 380
SWIDTH 618 0
DWIDTH 12 0
BBX 13 14 0 -1
BITMAP
00000020000000
000006D0000000
00000000000000
000017CD000000
015AE9CC000000
4EB511E7000000
000007D1000000
00001E50000000
00007B00000000
0000D300000000
0004D000147A60
0009C69DFFDA60
000CEB96310000
00020000000000
ENDCHAR
STARTCHAR Zcaron
ENCODING 381
SWIDTH 670 0
DWIDTH 13 0
BBX 13 19 0 0
BITMAP
0001B100073000
00005A00970000
0000098A500000
00000093000000
00000000000000
29AA9999999000
143334457ED100
000000006F3000
00000003F60000
0000001D900000
000000BB000000
000008D1000000
00005F30000000
0002E600000000
001D9000000000
00AB0000000000
07D10000000000
3FA77777778990
6FEDCCCBBBA960
ENDCHAR
STARTCHAR zcaron
ENCODING 382
SWIDTH 618 0
DWIDTH 12 0
BBX 13 16 0 -1
BITMAP
00760002900000
000B303B300000
0002C6A1000000
00004800000000
00000000000000
000017CD000000
015AE9CC000000
4EB511E7000000
000007D1000000
00001E50000000
00007B00000000
0000D300000000
0004D000147A60
0009C69DFFDA60
000CEB96310000
00020000000000
ENDCHAR
STARTCHAR florin
ENCODING 402
SWIDTH 345 0
DWIDTH 7 0
BBX 8 24 -1 -6
BITMAP
0001B800
0008ED60
000B83A0
000E6010
000F4000
001F2000
002F1000
002F0013
002E39FA
004FE950
05EE0000
021D0000
000D1000
000D2000
000D3000
000D5000
000D6000
000C7000
000C8000
000C8000
000C9000
023C8000
3CFE3000
00100000
ENDCHAR
STARTCHAR AEacute
ENCODING 508
SWIDTH 708 0
DWIDTH 14 0
BBX 14 19 0 0
BITMAP
00000050000000
000007E0000000
00003E30000000
00000100000000
00E20120002750
02F908B05CD600
04FE14EDD60000
06B853F6000000
0793A1E0000000
0980D1E0000510
0A6096E003A600
0C505CD5AA1000
0E401FFD400000
0F33BFF7000000
1FEA59F70001AA
3E2003F7004D60
4B0000E629C200
690000CDE70000
34000067100000
ENDCHAR
STARTCHAR aeacute
ENCODING 509
SWIDTH 705 0
DWIDTH 14 0
BBX 14 15 0 0
BITMAP
00000002300000
0000001D700000
000000AA000000
00000020021000
0003BA02DEE600
002EBF3CA05F10
00BA0F7E12C900
05E23FDB9D5000
0C808FFE810000
3E11EFF4000058
8909A8F10002E5
C43F24F0001C90
E1C803F101B900
CDC001FCAD6000
49100084510000
ENDCHAR
STARTCHAR Oslashacute
ENCODING 510
SWIDTH 382 0
DWIDTH 8 0
BBX 8 20 0 -2
BITMAP
00000500
0000AB00
0006C200
00011000
00026A60
004EEF50
01D62EE0
06A077E2
0C60B3C5
1F11D0B5
4C0580C5
790A40E3
970D01F1
A54A06C0
A6950B80
79D14E10
2ED6E500
09FC4000
0C100000
06000000
ENDCHAR
STARTCHAR oslashacute
ENCODING 511
SWIDTH 266 0
DWIDTH 5 0
BBX 6 18 0 -2
BITMAP
000410
005F20
01E500
002000
000063
07F8D1
0D8B90
2C0AB0
591DD0
7868F0
97B3F0
99C3D0
9E76B0
8F1B50
7D8C00
8EB200
D10000
600000
ENDCHAR
STARTCHAR Scommaaccent
ENCODING 536
SWIDTH 541 0
DWIDTH 11 0
BBX 11 22 0 -7
BITMAP
000002681000
0002AABE2000
004C30000000
04D200000000
1D3000000000
890000000000
B50000000000
970000000000
1C9410000000
0048BCCB9400
000000025E30
000000006E20
0000027DA200
0028CE820000
005730000000
000000000000
000001000000
00005D000000
00005F000000
00004D000000
000049000000
000022000000
ENDCHAR
STARTCHAR scommaaccent
ENCODING 537
SWIDTH 366 0
DWIDTH 7 0
BBX 7 18 0 -7
BITMAP
00000100
002BEE00
04D30100
1D400000
6B000000
78005830
5ECECCE0
055102E0
00002D70
0004E900
008F7000
00630000
00010000
001F3000
001F4000
000F2000
000E0000
00040000
ENDCHAR
STARTCHAR circumflex
ENCODING 710
SWIDTH 390 0
DWIDTH 8 0
BBX 8 6 0 13
BITMAP
00081000
006DB000
01D28900
07700A70
1C1001D6
45000021
ENDCHAR
STARTCHAR caron
ENCODING 711
SWIDTH 390 0
DWIDTH 8 0
BBX 7 4 1 12
BITMAP
A3000460
1C105A10
04B78000
00660000
ENDCHAR
STARTCHAR breve
ENCODING 728
SWIDTH 390 0
DWIDTH 8 0
BBX 6 3 1 12
BITMAP
420092
5C49D1
07FC20
ENDCHAR
STARTCHAR dotaccent
ENCODING 729
SWIDTH 128 0
DWIDTH 3 0
BBX 2 2 0 11
BITMAP
02
8B
ENDCHAR
STARTCHAR ring
ENCODING 730
SWIDTH 266 0
DWIDTH 5 0
BBX 5 4 0 10
BITMAP
037610
6D7AC0
9803E0
3CBB60
ENDCHAR
STARTCHAR ogonek
ENCODING 731
SWIDTH 366 0
DWIDTH 7 0
BBX 6 6 1 -5
BITMAP
003200
05D200
0D5000
1F0000
0E65B7
04CD91
ENDCHAR
STARTCHAR tilde
ENCODING 732
SWIDTH 458 0
DWIDTH 9 0
BBX 9 4 0 11
BITMAP
0033000000
0ACDA02D30
2E12E5CC00
03005DA100
ENDCHAR
STARTCHAR hungarumlaut
ENCODING 733
SWIDTH 239 0
DWIDTH 5 0
BBX 5 4 0 9
BITMAP
002000
0B8660
8C6E30
318300
ENDCHAR
STARTCHAR Wgrave
ENCODING 7808
SWIDTH 878 0
DWIDTH 18 0
BBX 17 20 0 -1
BITMAP
000000018000000000
00000000D700000000
000000003D00000000
000000000100000000
000000000000000280
0000000000000006A0
030000002500000A60
8D0000009F10000D20
3F300000CE60002E00
0B700002C9A0006A00
06C0000773E0009600
01F2000B30D400D200
00C6001D008A02E000
008B0068002E15A000
005F10B40009796000
001F61E00002ED3000
000CA6A00000AF0000
0006FC600000290000
0001DE100000000000
000021000000000000
ENDCHAR
STARTCHAR wgrave
ENCODING 7809
SWIDTH 566 0
DWIDTH 11 0
BBX 11 15 0 0
BITMAP
000072000000
00008C000000
00000B400000
000001000000
000012000100
58008D000A40
3E10AE700A60
0C50C6E20A50
06B0E47A0A60
01F2F30D3A70
00AAF204CA70
004FF100AE80
000DF0002F80
0008E0000680
0002B0000000
ENDCHAR
STARTCHAR Wacute
ENCODING 7810
SWIDTH 878 0
DWIDTH 18 0
BBX 17 20 0 -1
BITMAP
000000003200000000
00000003E400000000
0000000D7000000000
000000020000000000
000000000000000280
0000000000000006A0
030000002500000A60
8D0000009F10000D20
3F300000CE60002E00
0B700002C9A0006A00
06C0000773E0009600
01F2000B30D400D200
00C6001D008A02E000
008B0068002E15A000
005F10B40009796000
001F61E00002ED3000
000CA6A00000AF0000
0006FC600000290000
0001DE100000000000
000021000000000000
ENDCHAR
STARTCHAR wacute
ENCODING 7811
SWIDTH 566 0
DWIDTH 11 0
BBX 11 15 0 0
BITMAP
000000410000
000005F20000
00001E500000
000002000000
000012000100
58008D000A40
3E10AE700A60
0C50C6E20A50
06B0E47A0A60
01F2F30D3A70
00AAF204CA70
004FF100AE80
000DF0002F80
0008E0000680
0002B0000000
ENDCHAR
STARTCHAR Wdieresis
ENCODING 7812
SWIDTH 878 0
DWIDTH 18 0
BBX 17 18 0 -1
BITMAP
0000000C54D0000000
000000041130000000
000000000000000280
0000000000000006A0
030000002500000A60
8D0000009F10000D20
3F300000CE60002E00
0B700002C9A0006A00
06C0000773E0009600
01F2000B30D400D200
00C6001D008A02E000
008B0068002E15A000
005F10B40009796000
001F61E00002ED3000
000CA6A00000AF0000
0006FC600000290000
0001DE100000000000
000021000000000000
ENDCHAR
STARTCHAR wdieresis
ENCODING 7813
SWIDTH 566 0
DWIDTH 11 0
BBX 11 15 0 0
BITMAP
0003D1890000
000140320000
000000000000
000000000000
000012000100
58008D000A40
3E10AE700A60
0C50C6E20A50
06B0E47A0A60
01F2F30D3A70
00AAF204CA70
004FF100AE80
000DF0002F80
0008E0000680
0002B0000000
ENDCHAR
STARTCHAR Ygrave
ENCODING 7922
SWIDTH 483 0
DWIDTH 10 0
BBX 10 20 0 0
BITMAP
0002600000
0002E40000
00005B0000
0000010000
0000000041
00000000B2
00000001D0
7100000590
5B00000A50
0C80001E10
02E5006B00
004E40B600
0006E7E100
00007FA000
00001F5000
00003E0000
0000790000
0000C40000
0001E00000
0003A00000
ENDCHAR
STARTCHAR ygrave
ENCODING 7923
SWIDTH 363 0
DWIDTH 7 0
BBX 7 23 0 -8
BITMAP
00710000
009B0000
001C3000
00010000
00000040
100001D0
8A0002D0
2F4003C0
07D004C0
00D705C0
004E25B0
0009C7B0
0001EFA0
00005FA0
00000B90
00000880
00000960
00000A50
00000B40
00000C30
00000E20
00000F10
00000700
ENDCHAR
STARTCHAR endash
ENCODING 8211
SWIDTH 399 0
DWIDTH 8 0
BBX 8 4 0 3
BITMAP
00000263
0005BFC5
5AEB6200
34100000
ENDCHAR
STARTCHAR emdash
ENCODING 8212
SWIDTH 549 0
DWIDTH 11 0
BBX 10 4 0 3
BITMAP
0000000001
000037ADFD
59CEC97420
3420000000
ENDCHAR
STARTCHAR quoteleft
ENCODING 8216
SWIDTH 155 0
DWIDTH 3 0
BBX 2 7 0 6
BITMAP
25
5D
3F
1F
0E
0B
01
ENDCHAR
STARTCHAR quoteright
ENCODING 8217
SWIDTH 155 0
DWIDTH 3 0
BBX 2 7 0 6
BITMAP
25
5D
3F
1F
0E
0B
01
ENDCHAR
STARTCHAR quotesinglbase
ENCODING 8218
SWIDTH 155 0
DWIDTH 3 0
BBX 3 7 0 -1
BITMAP
0600
2F10
0F30
0E20
0C20
0920
0100
ENDCHAR
STARTCHAR quotedblleft
ENCODING 8220
SWIDTH 212 0
DWIDTH 4 0
BBX 4 6 0 10
BITMAP
5523
5848
4A48
3B48
1B48
0902
ENDCHAR
STARTCHAR quotedblright
ENCODING 8221
SWIDTH 212 0
DWIDTH 4 0
BBX 4 6 0 10
BITMAP
5523
5848
4A48
3B48
1B48
0902
ENDCHAR
STARTCHAR quotedblbase
ENCODING 8222
SWIDTH 212 0
DWIDTH 4 0
BBX 4 6 0 0
BITMAP
4512
5939
3A39
2B39
1C39
0A04
ENDCHAR
STARTCHAR dagger
ENCODING 8224
SWIDTH 268 0
DWIDTH 5 0
BBX 7 17 -1 -1
BITMAP
00210000
00B60000
00B50000
00B40000
00C30110
00C9BF60
29FE9200
AEF30000
11E40000
00D40000
00C50000
00B50000
00A60000
00970000
00970000
00880000
00230000
ENDCHAR
STARTCHAR daggerdbl
ENCODING 8225
SWIDTH 326 0
DWIDTH 7 0
BBX 7 17 0 -1
BITMAP
00210000
00B60000
00B50000
00C40000
00C30110
00C9BF50
29FE9200
AEF30000
11E9BE70
3BFB6200
55D40000
00C50000
00B50000
00A60000
00970000
00870000
00230000
ENDCHAR
STARTCHAR bullet
ENCODING 8226
SWIDTH 189 0
DWIDTH 4 0
BBX 4 4 0 4
BITMAP
0130
1DF3
2FE1
0430
ENDCHAR
STARTCHAR ellipsis
ENCODING 8230
SWIDTH 387 0
DWIDTH 8 0
BBX 8 2 0 0
BITMAP
03022030
6D0C73E1
ENDCHAR
STARTCHAR guilsinglleft
ENCODING 8249
SWIDTH 409 0
DWIDTH 8 0
BBX 7 11 1 2
BITMAP
00000080
00001BA0
0002DB10
004E9000
07E50000
9C200000
DA100000
1BD50000
006EB300
00019F70
00000310
ENDCHAR
STARTCHAR guilsinglright
ENCODING 8250
SWIDTH 450 0
DWIDTH 9 0
BBX 7 12 1 2
BITMAP
10000000
E9100000
3BE70000
005CD400
00006D90
000005B0
00002D30
0004E500
007F5000
0AE40000
BC200000
70000000
ENDCHAR
STARTCHAR fraction
ENCODING 8260
SWIDTH 306 0
DWIDTH 6 0
BBX 6 16 0 -2
BITMAP
000077
0000C2
0002D0
000680
000B30
001D00
005900
009400
00D000
03A000
086000
0C1000
2B0000
770000
B20000
600000
ENDCHAR
STARTCHAR Euro
ENCODING 8364
SWIDTH 589 0
DWIDTH 12 0
BBX 12 16 0 -1
BITMAP
000000583000
000008C8D100
00003D104100
0000A5000000
0002D0000000
000790000000
000B76720000
4DFFC8300000
034D00000000
005B59DC1000
37CD85300000
678800000082
005A000007E1
001E4015BE30
0004EFFD8100
000002200000
ENDCHAR
STARTCHAR trademark
ENCODING 8482
SWIDTH 1278 0
DWIDTH 26 0
BBX 25 16 0 0
BITMAP
00000000000012000000002000
0000002000007F70000000E400
000013EA9ACDEEF3000004F500
49BEECEB65312C6C000008B600
575200A800001C0D40000C6800
0000008800000C05C0003A4900
0000006900000D00D400863A00
0000005A00000D106B00D12B00
0000003C00000C300D43B00C00
0000002E00000C4006C8600D00
0000001F10000C6000DE100D10
0000000E30000B700056000B30
0000000D50000B900000000A50
0000000B60000AA00000000980
0000000880000AA000000007C0
00000005900008A000000006A0
ENDCHAR
STARTCHAR minus
ENCODING 8722
SWIDTH 358 0
DWIDTH 7 0
BBX 7 2 0 5
BITMAP
01246750
1CBBA960
ENDCHAR
STARTCHAR commaaccent
ENCODING 63171
SWIDTH 450 0
DWIDTH 9 0
BBX 2 6 3 -7
BITMAP
01
7B
7D
6B
77
31
ENDCHAR
STARTCHAR fi
ENCODING 64257
SWIDTH 409 0
DWIDTH 8 0
BBX 8 19 0 -1
BITMAP
001B8000
008ED600
00B83A00
00E60470
00F40150
01F20000
02F10040
02F001E2
02E29FF2
04FEB7F2
5EF000F2
21E100F2
00E200F2
00D400E2
00C500E2
00B700D2
00A700D2
008500D2
00000020
ENDCHAR
STARTCHAR fl
ENCODING 64258
SWIDTH 416 0
DWIDTH 8 0
BBX 8 18 0 0
BITMAP
001B8000
008ED760
00B83AD0
00E601D0
00F400C0
01F200B1
02F100A2
02F001B3
02E29FE4
04FEB785
5EF00086
21E10076
00E20077
00D40077
00C50078
00B70088
00A70099
00850099
ENDCHAR
STARTCHAR .notdef
ENCODING -1
SWIDTH 450 0
DWIDTH 9 0
BBX 1 1 0 0
BITMAP
00
ENDCHAR
STARTCHAR .null
ENCODING -1
SWIDTH 0 0
DWIDTH 0 0
BBX 1 1 0 0
BITMAP
00
ENDCHAR
STARTCHAR nonmarkingreturn
ENCODING -1
SWIDTH 450 0
DWIDTH 9 0
BBX 1 1 0 0
BITMAP
00
ENDCHAR
ENDFONT
